M48
; DRILL file {KiCad (5.1.12)-1} date 06/22/22 10:59:18
; FORMAT={-:-/ absolute / metric / decimal}
; #@! TF.CreationDate,2022-06-22T10:59:18-05:00
; #@! TF.GenerationSoftware,Kicad,Pcbnew,(5.1.12)-1
; #@! TF.FileFunction,Plated,1,2,PTH
FMAT,2
METRIC
T1C1.000
T2C1.110
T3C3.100
%
G90
G05
T1
X107.272Y-66.285
X107.272Y-91.685
X109.812Y-66.285
X109.812Y-91.685
X110.833Y-55.159
X110.833Y-57.699
X112.352Y-66.285
X114.892Y-66.285
X122.644Y-103.325
X122.644Y-105.865
X122.857Y-59.921
X130.404Y-103.424
X130.404Y-105.964
X132.672Y-66.285
X133.017Y-59.921
X137.279Y-103.325
X137.279Y-105.865
X137.752Y-91.685
X140.292Y-91.685
X142.822Y-53.307
X142.822Y-55.847
X142.822Y-58.387
X142.822Y-60.927
X142.832Y-66.285
X142.832Y-91.685
X144.747Y-103.228
X144.747Y-105.768
X145.372Y-66.285
X145.372Y-91.685
X147.912Y-91.685
X150.452Y-91.685
X151.526Y-53.307
X151.526Y-55.847
X151.526Y-58.387
X151.526Y-60.927
X152.53Y-103.127
X152.53Y-105.667
X159.964Y-53.307
X159.964Y-55.847
X159.964Y-58.387
X159.964Y-60.927
X162.004Y-95.225
X162.182Y-81.991
X162.182Y-88.742
X162.209Y-69.883
X162.27Y-76.131
X172.164Y-95.225
X172.342Y-81.991
X172.342Y-88.742
X172.369Y-69.883
X172.43Y-76.131
T2
X112.352Y-91.685
X114.892Y-91.685
X117.432Y-66.285
X117.432Y-91.685
X119.972Y-66.285
X119.972Y-91.685
X122.512Y-66.285
X122.512Y-91.685
X125.052Y-66.285
X125.052Y-91.685
X127.592Y-66.285
X127.592Y-91.685
X130.132Y-66.285
X130.132Y-91.685
X132.672Y-91.685
X135.212Y-66.285
X135.212Y-91.685
X137.752Y-66.285
X140.292Y-66.285
X147.912Y-66.285
X150.452Y-66.285
T3
X102.375Y-66.985
X102.375Y-90.985
X155.375Y-66.985
X155.375Y-90.985
T0
M30
