%TF.GenerationSoftware,KiCad,Pcbnew,(5.1.12)-1*%
%TF.CreationDate,2022-06-22T10:59:22-05:00*%
%TF.ProjectId,Unidad central,556e6964-6164-4206-9365-6e7472616c2e,rev?*%
%TF.SameCoordinates,Original*%
%TF.FileFunction,AssemblyDrawing,Top*%
%FSLAX46Y46*%
G04 Gerber Fmt 4.6, Leading zero omitted, Abs format (unit mm)*
G04 Created by KiCad (PCBNEW (5.1.12)-1) date 2022-06-22 10:59:22*
%MOMM*%
%LPD*%
G01*
G04 APERTURE LIST*
%ADD10C,0.100000*%
%ADD11C,0.200000*%
%ADD12C,0.150000*%
%ADD13C,0.254000*%
G04 APERTURE END LIST*
D10*
%TO.C,R6*%
X122857000Y-59921100D02*
X124787000Y-59921100D01*
X133017000Y-59921100D02*
X131087000Y-59921100D01*
X124787000Y-61171100D02*
X131087000Y-61171100D01*
X124787000Y-58671100D02*
X124787000Y-61171100D01*
X131087000Y-58671100D02*
X124787000Y-58671100D01*
X131087000Y-61171100D02*
X131087000Y-58671100D01*
%TO.C,R5*%
X172164000Y-95224600D02*
X170234000Y-95224600D01*
X162004000Y-95224600D02*
X163934000Y-95224600D01*
X170234000Y-93974600D02*
X163934000Y-93974600D01*
X170234000Y-96474600D02*
X170234000Y-93974600D01*
X163934000Y-96474600D02*
X170234000Y-96474600D01*
X163934000Y-93974600D02*
X163934000Y-96474600D01*
%TO.C,R4*%
X172342000Y-88742500D02*
X170412000Y-88742500D01*
X162182000Y-88742500D02*
X164112000Y-88742500D01*
X170412000Y-87492500D02*
X164112000Y-87492500D01*
X170412000Y-89992500D02*
X170412000Y-87492500D01*
X164112000Y-89992500D02*
X170412000Y-89992500D01*
X164112000Y-87492500D02*
X164112000Y-89992500D01*
%TO.C,R3*%
X172342000Y-81991200D02*
X170412000Y-81991200D01*
X162182000Y-81991200D02*
X164112000Y-81991200D01*
X170412000Y-80741200D02*
X164112000Y-80741200D01*
X170412000Y-83241200D02*
X170412000Y-80741200D01*
X164112000Y-83241200D02*
X170412000Y-83241200D01*
X164112000Y-80741200D02*
X164112000Y-83241200D01*
%TO.C,R2*%
X172430000Y-76131400D02*
X170500000Y-76131400D01*
X162270000Y-76131400D02*
X164200000Y-76131400D01*
X170500000Y-74881400D02*
X164200000Y-74881400D01*
X170500000Y-77381400D02*
X170500000Y-74881400D01*
X164200000Y-77381400D02*
X170500000Y-77381400D01*
X164200000Y-74881400D02*
X164200000Y-77381400D01*
%TO.C,R1*%
X172369000Y-69883000D02*
X170439000Y-69883000D01*
X162209000Y-69883000D02*
X164139000Y-69883000D01*
X170439000Y-68633000D02*
X164139000Y-68633000D01*
X170439000Y-71133000D02*
X170439000Y-68633000D01*
X164139000Y-71133000D02*
X170439000Y-71133000D01*
X164139000Y-68633000D02*
X164139000Y-71133000D01*
%TO.C,J4*%
X143477000Y-102593000D02*
X144112000Y-101958000D01*
X143477000Y-107038000D02*
X143477000Y-102593000D01*
X146017000Y-107038000D02*
X143477000Y-107038000D01*
X146017000Y-101958000D02*
X146017000Y-107038000D01*
X144112000Y-101958000D02*
X146017000Y-101958000D01*
%TO.C,J3*%
X136009000Y-102690000D02*
X136644000Y-102055000D01*
X136009000Y-107135000D02*
X136009000Y-102690000D01*
X138549000Y-107135000D02*
X136009000Y-107135000D01*
X138549000Y-102055000D02*
X138549000Y-107135000D01*
X136644000Y-102055000D02*
X138549000Y-102055000D01*
%TO.C,J2*%
X129134000Y-102789000D02*
X129769000Y-102154000D01*
X129134000Y-107234000D02*
X129134000Y-102789000D01*
X131674000Y-107234000D02*
X129134000Y-107234000D01*
X131674000Y-102154000D02*
X131674000Y-107234000D01*
X129769000Y-102154000D02*
X131674000Y-102154000D01*
%TO.C,D3*%
X141552000Y-52672000D02*
X142187000Y-52037000D01*
X141552000Y-62197000D02*
X141552000Y-52672000D01*
X144092000Y-62197000D02*
X141552000Y-62197000D01*
X144092000Y-52037000D02*
X144092000Y-62197000D01*
X142187000Y-52037000D02*
X144092000Y-52037000D01*
D11*
%TO.C,U1*%
X99552000Y-82184200D02*
X99552000Y-87990200D01*
X103874000Y-87990200D02*
X99552000Y-87990200D01*
X103874000Y-82184200D02*
X103874000Y-87990200D01*
X99552000Y-82184200D02*
X103874000Y-82184200D01*
X150452000Y-87985200D02*
X150452000Y-69985200D01*
X132672000Y-87985200D02*
X150452000Y-87985200D01*
X132672000Y-69985200D02*
X132672000Y-87985200D01*
X150452000Y-69985200D02*
X132672000Y-69985200D01*
X99862000Y-93485200D02*
X99862000Y-64485200D01*
X157862000Y-93485200D02*
X99862000Y-93485200D01*
X157862000Y-64485200D02*
X157862000Y-93485200D01*
X99862000Y-64485200D02*
X157862000Y-64485200D01*
D10*
%TO.C,D2*%
X150256000Y-52672000D02*
X150891000Y-52037000D01*
X150256000Y-62197000D02*
X150256000Y-52672000D01*
X152796000Y-62197000D02*
X150256000Y-62197000D01*
X152796000Y-52037000D02*
X152796000Y-62197000D01*
X150891000Y-52037000D02*
X152796000Y-52037000D01*
%TO.C,D1*%
X158694000Y-52672000D02*
X159329000Y-52037000D01*
X158694000Y-62197000D02*
X158694000Y-52672000D01*
X161234000Y-62197000D02*
X158694000Y-62197000D01*
X161234000Y-52037000D02*
X161234000Y-62197000D01*
X159329000Y-52037000D02*
X161234000Y-52037000D01*
%TO.C,J6*%
X109563000Y-54523600D02*
X110198000Y-53888600D01*
X109563000Y-58968600D02*
X109563000Y-54523600D01*
X112103000Y-58968600D02*
X109563000Y-58968600D01*
X112103000Y-53888600D02*
X112103000Y-58968600D01*
X110198000Y-53888600D02*
X112103000Y-53888600D01*
%TO.C,J5*%
X151260000Y-102492000D02*
X151895000Y-101857000D01*
X151260000Y-106937000D02*
X151260000Y-102492000D01*
X153800000Y-106937000D02*
X151260000Y-106937000D01*
X153800000Y-101857000D02*
X153800000Y-106937000D01*
X151895000Y-101857000D02*
X153800000Y-101857000D01*
%TO.C,J1*%
X121374000Y-102690000D02*
X122009000Y-102055000D01*
X121374000Y-107135000D02*
X121374000Y-102690000D01*
X123914000Y-107135000D02*
X121374000Y-107135000D01*
X123914000Y-102055000D02*
X123914000Y-107135000D01*
X122009000Y-102055000D02*
X123914000Y-102055000D01*
%TD*%
%TO.C,R6*%
D12*
X128246523Y-58003480D02*
X127913190Y-57527290D01*
X127675095Y-58003480D02*
X127675095Y-57003480D01*
X128056047Y-57003480D01*
X128151285Y-57051100D01*
X128198904Y-57098719D01*
X128246523Y-57193957D01*
X128246523Y-57336814D01*
X128198904Y-57432052D01*
X128151285Y-57479671D01*
X128056047Y-57527290D01*
X127675095Y-57527290D01*
X127770333Y-60373480D02*
X127437000Y-59897290D01*
X127198904Y-60373480D02*
X127198904Y-59373480D01*
X127579857Y-59373480D01*
X127675095Y-59421100D01*
X127722714Y-59468719D01*
X127770333Y-59563957D01*
X127770333Y-59706814D01*
X127722714Y-59802052D01*
X127675095Y-59849671D01*
X127579857Y-59897290D01*
X127198904Y-59897290D01*
X128627476Y-59373480D02*
X128437000Y-59373480D01*
X128341761Y-59421100D01*
X128294142Y-59468719D01*
X128198904Y-59611576D01*
X128151285Y-59802052D01*
X128151285Y-60183004D01*
X128198904Y-60278242D01*
X128246523Y-60325861D01*
X128341761Y-60373480D01*
X128532238Y-60373480D01*
X128627476Y-60325861D01*
X128675095Y-60278242D01*
X128722714Y-60183004D01*
X128722714Y-59944909D01*
X128675095Y-59849671D01*
X128627476Y-59802052D01*
X128532238Y-59754433D01*
X128341761Y-59754433D01*
X128246523Y-59802052D01*
X128198904Y-59849671D01*
X128151285Y-59944909D01*
%TO.C,R5*%
X167393523Y-98046980D02*
X167060190Y-97570790D01*
X166822095Y-98046980D02*
X166822095Y-97046980D01*
X167203047Y-97046980D01*
X167298285Y-97094600D01*
X167345904Y-97142219D01*
X167393523Y-97237457D01*
X167393523Y-97380314D01*
X167345904Y-97475552D01*
X167298285Y-97523171D01*
X167203047Y-97570790D01*
X166822095Y-97570790D01*
X166917333Y-95676980D02*
X166584000Y-95200790D01*
X166345904Y-95676980D02*
X166345904Y-94676980D01*
X166726857Y-94676980D01*
X166822095Y-94724600D01*
X166869714Y-94772219D01*
X166917333Y-94867457D01*
X166917333Y-95010314D01*
X166869714Y-95105552D01*
X166822095Y-95153171D01*
X166726857Y-95200790D01*
X166345904Y-95200790D01*
X167822095Y-94676980D02*
X167345904Y-94676980D01*
X167298285Y-95153171D01*
X167345904Y-95105552D01*
X167441142Y-95057933D01*
X167679238Y-95057933D01*
X167774476Y-95105552D01*
X167822095Y-95153171D01*
X167869714Y-95248409D01*
X167869714Y-95486504D01*
X167822095Y-95581742D01*
X167774476Y-95629361D01*
X167679238Y-95676980D01*
X167441142Y-95676980D01*
X167345904Y-95629361D01*
X167298285Y-95581742D01*
%TO.C,R4*%
X167571523Y-91564880D02*
X167238190Y-91088690D01*
X167000095Y-91564880D02*
X167000095Y-90564880D01*
X167381047Y-90564880D01*
X167476285Y-90612500D01*
X167523904Y-90660119D01*
X167571523Y-90755357D01*
X167571523Y-90898214D01*
X167523904Y-90993452D01*
X167476285Y-91041071D01*
X167381047Y-91088690D01*
X167000095Y-91088690D01*
X167095333Y-89194880D02*
X166762000Y-88718690D01*
X166523904Y-89194880D02*
X166523904Y-88194880D01*
X166904857Y-88194880D01*
X167000095Y-88242500D01*
X167047714Y-88290119D01*
X167095333Y-88385357D01*
X167095333Y-88528214D01*
X167047714Y-88623452D01*
X167000095Y-88671071D01*
X166904857Y-88718690D01*
X166523904Y-88718690D01*
X167952476Y-88528214D02*
X167952476Y-89194880D01*
X167714380Y-88147261D02*
X167476285Y-88861547D01*
X168095333Y-88861547D01*
%TO.C,R3*%
X167571523Y-84813580D02*
X167238190Y-84337390D01*
X167000095Y-84813580D02*
X167000095Y-83813580D01*
X167381047Y-83813580D01*
X167476285Y-83861200D01*
X167523904Y-83908819D01*
X167571523Y-84004057D01*
X167571523Y-84146914D01*
X167523904Y-84242152D01*
X167476285Y-84289771D01*
X167381047Y-84337390D01*
X167000095Y-84337390D01*
X167095333Y-82443580D02*
X166762000Y-81967390D01*
X166523904Y-82443580D02*
X166523904Y-81443580D01*
X166904857Y-81443580D01*
X167000095Y-81491200D01*
X167047714Y-81538819D01*
X167095333Y-81634057D01*
X167095333Y-81776914D01*
X167047714Y-81872152D01*
X167000095Y-81919771D01*
X166904857Y-81967390D01*
X166523904Y-81967390D01*
X167428666Y-81443580D02*
X168047714Y-81443580D01*
X167714380Y-81824533D01*
X167857238Y-81824533D01*
X167952476Y-81872152D01*
X168000095Y-81919771D01*
X168047714Y-82015009D01*
X168047714Y-82253104D01*
X168000095Y-82348342D01*
X167952476Y-82395961D01*
X167857238Y-82443580D01*
X167571523Y-82443580D01*
X167476285Y-82395961D01*
X167428666Y-82348342D01*
%TO.C,R2*%
X167659523Y-78953780D02*
X167326190Y-78477590D01*
X167088095Y-78953780D02*
X167088095Y-77953780D01*
X167469047Y-77953780D01*
X167564285Y-78001400D01*
X167611904Y-78049019D01*
X167659523Y-78144257D01*
X167659523Y-78287114D01*
X167611904Y-78382352D01*
X167564285Y-78429971D01*
X167469047Y-78477590D01*
X167088095Y-78477590D01*
X167183333Y-76583780D02*
X166850000Y-76107590D01*
X166611904Y-76583780D02*
X166611904Y-75583780D01*
X166992857Y-75583780D01*
X167088095Y-75631400D01*
X167135714Y-75679019D01*
X167183333Y-75774257D01*
X167183333Y-75917114D01*
X167135714Y-76012352D01*
X167088095Y-76059971D01*
X166992857Y-76107590D01*
X166611904Y-76107590D01*
X167564285Y-75679019D02*
X167611904Y-75631400D01*
X167707142Y-75583780D01*
X167945238Y-75583780D01*
X168040476Y-75631400D01*
X168088095Y-75679019D01*
X168135714Y-75774257D01*
X168135714Y-75869495D01*
X168088095Y-76012352D01*
X167516666Y-76583780D01*
X168135714Y-76583780D01*
%TO.C,R1*%
X167598523Y-72705380D02*
X167265190Y-72229190D01*
X167027095Y-72705380D02*
X167027095Y-71705380D01*
X167408047Y-71705380D01*
X167503285Y-71753000D01*
X167550904Y-71800619D01*
X167598523Y-71895857D01*
X167598523Y-72038714D01*
X167550904Y-72133952D01*
X167503285Y-72181571D01*
X167408047Y-72229190D01*
X167027095Y-72229190D01*
X167122333Y-70335380D02*
X166789000Y-69859190D01*
X166550904Y-70335380D02*
X166550904Y-69335380D01*
X166931857Y-69335380D01*
X167027095Y-69383000D01*
X167074714Y-69430619D01*
X167122333Y-69525857D01*
X167122333Y-69668714D01*
X167074714Y-69763952D01*
X167027095Y-69811571D01*
X166931857Y-69859190D01*
X166550904Y-69859190D01*
X168074714Y-70335380D02*
X167503285Y-70335380D01*
X167789000Y-70335380D02*
X167789000Y-69335380D01*
X167693761Y-69478238D01*
X167598523Y-69573476D01*
X167503285Y-69621095D01*
%TO.C,J4*%
X141008904Y-108455142D02*
X140961285Y-108502761D01*
X140818428Y-108550380D01*
X140723190Y-108550380D01*
X140580333Y-108502761D01*
X140485095Y-108407523D01*
X140437476Y-108312285D01*
X140389857Y-108121809D01*
X140389857Y-107978952D01*
X140437476Y-107788476D01*
X140485095Y-107693238D01*
X140580333Y-107598000D01*
X140723190Y-107550380D01*
X140818428Y-107550380D01*
X140961285Y-107598000D01*
X141008904Y-107645619D01*
X141580333Y-108550380D02*
X141485095Y-108502761D01*
X141437476Y-108455142D01*
X141389857Y-108359904D01*
X141389857Y-108074190D01*
X141437476Y-107978952D01*
X141485095Y-107931333D01*
X141580333Y-107883714D01*
X141723190Y-107883714D01*
X141818428Y-107931333D01*
X141866047Y-107978952D01*
X141913666Y-108074190D01*
X141913666Y-108359904D01*
X141866047Y-108455142D01*
X141818428Y-108502761D01*
X141723190Y-108550380D01*
X141580333Y-108550380D01*
X142342238Y-107883714D02*
X142342238Y-108550380D01*
X142342238Y-107978952D02*
X142389857Y-107931333D01*
X142485095Y-107883714D01*
X142627952Y-107883714D01*
X142723190Y-107931333D01*
X142770809Y-108026571D01*
X142770809Y-108550380D01*
X143247000Y-107883714D02*
X143247000Y-108550380D01*
X143247000Y-107978952D02*
X143294619Y-107931333D01*
X143389857Y-107883714D01*
X143532714Y-107883714D01*
X143627952Y-107931333D01*
X143675571Y-108026571D01*
X143675571Y-108550380D01*
X143913666Y-108645619D02*
X144675571Y-108645619D01*
X145104142Y-107550380D02*
X145199380Y-107550380D01*
X145294619Y-107598000D01*
X145342238Y-107645619D01*
X145389857Y-107740857D01*
X145437476Y-107931333D01*
X145437476Y-108169428D01*
X145389857Y-108359904D01*
X145342238Y-108455142D01*
X145294619Y-108502761D01*
X145199380Y-108550380D01*
X145104142Y-108550380D01*
X145008904Y-108502761D01*
X144961285Y-108455142D01*
X144913666Y-108359904D01*
X144866047Y-108169428D01*
X144866047Y-107931333D01*
X144913666Y-107740857D01*
X144961285Y-107645619D01*
X145008904Y-107598000D01*
X145104142Y-107550380D01*
X146389857Y-108550380D02*
X145818428Y-108550380D01*
X146104142Y-108550380D02*
X146104142Y-107550380D01*
X146008904Y-107693238D01*
X145913666Y-107788476D01*
X145818428Y-107836095D01*
X146723190Y-108550380D02*
X147247000Y-107883714D01*
X146723190Y-107883714D02*
X147247000Y-108550380D01*
X147818428Y-107550380D02*
X147913666Y-107550380D01*
X148008904Y-107598000D01*
X148056523Y-107645619D01*
X148104142Y-107740857D01*
X148151761Y-107931333D01*
X148151761Y-108169428D01*
X148104142Y-108359904D01*
X148056523Y-108455142D01*
X148008904Y-108502761D01*
X147913666Y-108550380D01*
X147818428Y-108550380D01*
X147723190Y-108502761D01*
X147675571Y-108455142D01*
X147627952Y-108359904D01*
X147580333Y-108169428D01*
X147580333Y-107931333D01*
X147627952Y-107740857D01*
X147675571Y-107645619D01*
X147723190Y-107598000D01*
X147818428Y-107550380D01*
X148532714Y-107645619D02*
X148580333Y-107598000D01*
X148675571Y-107550380D01*
X148913666Y-107550380D01*
X149008904Y-107598000D01*
X149056523Y-107645619D01*
X149104142Y-107740857D01*
X149104142Y-107836095D01*
X149056523Y-107978952D01*
X148485095Y-108550380D01*
X149104142Y-108550380D01*
X144199380Y-104831333D02*
X144913666Y-104831333D01*
X145056523Y-104878952D01*
X145151761Y-104974190D01*
X145199380Y-105117047D01*
X145199380Y-105212285D01*
X144532714Y-103926571D02*
X145199380Y-103926571D01*
X144151761Y-104164666D02*
X144866047Y-104402761D01*
X144866047Y-103783714D01*
%TO.C,J3*%
X133540904Y-108552142D02*
X133493285Y-108599761D01*
X133350428Y-108647380D01*
X133255190Y-108647380D01*
X133112333Y-108599761D01*
X133017095Y-108504523D01*
X132969476Y-108409285D01*
X132921857Y-108218809D01*
X132921857Y-108075952D01*
X132969476Y-107885476D01*
X133017095Y-107790238D01*
X133112333Y-107695000D01*
X133255190Y-107647380D01*
X133350428Y-107647380D01*
X133493285Y-107695000D01*
X133540904Y-107742619D01*
X134112333Y-108647380D02*
X134017095Y-108599761D01*
X133969476Y-108552142D01*
X133921857Y-108456904D01*
X133921857Y-108171190D01*
X133969476Y-108075952D01*
X134017095Y-108028333D01*
X134112333Y-107980714D01*
X134255190Y-107980714D01*
X134350428Y-108028333D01*
X134398047Y-108075952D01*
X134445666Y-108171190D01*
X134445666Y-108456904D01*
X134398047Y-108552142D01*
X134350428Y-108599761D01*
X134255190Y-108647380D01*
X134112333Y-108647380D01*
X134874238Y-107980714D02*
X134874238Y-108647380D01*
X134874238Y-108075952D02*
X134921857Y-108028333D01*
X135017095Y-107980714D01*
X135159952Y-107980714D01*
X135255190Y-108028333D01*
X135302809Y-108123571D01*
X135302809Y-108647380D01*
X135779000Y-107980714D02*
X135779000Y-108647380D01*
X135779000Y-108075952D02*
X135826619Y-108028333D01*
X135921857Y-107980714D01*
X136064714Y-107980714D01*
X136159952Y-108028333D01*
X136207571Y-108123571D01*
X136207571Y-108647380D01*
X136445666Y-108742619D02*
X137207571Y-108742619D01*
X137636142Y-107647380D02*
X137731380Y-107647380D01*
X137826619Y-107695000D01*
X137874238Y-107742619D01*
X137921857Y-107837857D01*
X137969476Y-108028333D01*
X137969476Y-108266428D01*
X137921857Y-108456904D01*
X137874238Y-108552142D01*
X137826619Y-108599761D01*
X137731380Y-108647380D01*
X137636142Y-108647380D01*
X137540904Y-108599761D01*
X137493285Y-108552142D01*
X137445666Y-108456904D01*
X137398047Y-108266428D01*
X137398047Y-108028333D01*
X137445666Y-107837857D01*
X137493285Y-107742619D01*
X137540904Y-107695000D01*
X137636142Y-107647380D01*
X138921857Y-108647380D02*
X138350428Y-108647380D01*
X138636142Y-108647380D02*
X138636142Y-107647380D01*
X138540904Y-107790238D01*
X138445666Y-107885476D01*
X138350428Y-107933095D01*
X139255190Y-108647380D02*
X139779000Y-107980714D01*
X139255190Y-107980714D02*
X139779000Y-108647380D01*
X140350428Y-107647380D02*
X140445666Y-107647380D01*
X140540904Y-107695000D01*
X140588523Y-107742619D01*
X140636142Y-107837857D01*
X140683761Y-108028333D01*
X140683761Y-108266428D01*
X140636142Y-108456904D01*
X140588523Y-108552142D01*
X140540904Y-108599761D01*
X140445666Y-108647380D01*
X140350428Y-108647380D01*
X140255190Y-108599761D01*
X140207571Y-108552142D01*
X140159952Y-108456904D01*
X140112333Y-108266428D01*
X140112333Y-108028333D01*
X140159952Y-107837857D01*
X140207571Y-107742619D01*
X140255190Y-107695000D01*
X140350428Y-107647380D01*
X141064714Y-107742619D02*
X141112333Y-107695000D01*
X141207571Y-107647380D01*
X141445666Y-107647380D01*
X141540904Y-107695000D01*
X141588523Y-107742619D01*
X141636142Y-107837857D01*
X141636142Y-107933095D01*
X141588523Y-108075952D01*
X141017095Y-108647380D01*
X141636142Y-108647380D01*
X136731380Y-104928333D02*
X137445666Y-104928333D01*
X137588523Y-104975952D01*
X137683761Y-105071190D01*
X137731380Y-105214047D01*
X137731380Y-105309285D01*
X136731380Y-104547380D02*
X136731380Y-103928333D01*
X137112333Y-104261666D01*
X137112333Y-104118809D01*
X137159952Y-104023571D01*
X137207571Y-103975952D01*
X137302809Y-103928333D01*
X137540904Y-103928333D01*
X137636142Y-103975952D01*
X137683761Y-104023571D01*
X137731380Y-104118809D01*
X137731380Y-104404523D01*
X137683761Y-104499761D01*
X137636142Y-104547380D01*
%TO.C,J2*%
X126665904Y-108651142D02*
X126618285Y-108698761D01*
X126475428Y-108746380D01*
X126380190Y-108746380D01*
X126237333Y-108698761D01*
X126142095Y-108603523D01*
X126094476Y-108508285D01*
X126046857Y-108317809D01*
X126046857Y-108174952D01*
X126094476Y-107984476D01*
X126142095Y-107889238D01*
X126237333Y-107794000D01*
X126380190Y-107746380D01*
X126475428Y-107746380D01*
X126618285Y-107794000D01*
X126665904Y-107841619D01*
X127237333Y-108746380D02*
X127142095Y-108698761D01*
X127094476Y-108651142D01*
X127046857Y-108555904D01*
X127046857Y-108270190D01*
X127094476Y-108174952D01*
X127142095Y-108127333D01*
X127237333Y-108079714D01*
X127380190Y-108079714D01*
X127475428Y-108127333D01*
X127523047Y-108174952D01*
X127570666Y-108270190D01*
X127570666Y-108555904D01*
X127523047Y-108651142D01*
X127475428Y-108698761D01*
X127380190Y-108746380D01*
X127237333Y-108746380D01*
X127999238Y-108079714D02*
X127999238Y-108746380D01*
X127999238Y-108174952D02*
X128046857Y-108127333D01*
X128142095Y-108079714D01*
X128284952Y-108079714D01*
X128380190Y-108127333D01*
X128427809Y-108222571D01*
X128427809Y-108746380D01*
X128904000Y-108079714D02*
X128904000Y-108746380D01*
X128904000Y-108174952D02*
X128951619Y-108127333D01*
X129046857Y-108079714D01*
X129189714Y-108079714D01*
X129284952Y-108127333D01*
X129332571Y-108222571D01*
X129332571Y-108746380D01*
X129570666Y-108841619D02*
X130332571Y-108841619D01*
X130761142Y-107746380D02*
X130856380Y-107746380D01*
X130951619Y-107794000D01*
X130999238Y-107841619D01*
X131046857Y-107936857D01*
X131094476Y-108127333D01*
X131094476Y-108365428D01*
X131046857Y-108555904D01*
X130999238Y-108651142D01*
X130951619Y-108698761D01*
X130856380Y-108746380D01*
X130761142Y-108746380D01*
X130665904Y-108698761D01*
X130618285Y-108651142D01*
X130570666Y-108555904D01*
X130523047Y-108365428D01*
X130523047Y-108127333D01*
X130570666Y-107936857D01*
X130618285Y-107841619D01*
X130665904Y-107794000D01*
X130761142Y-107746380D01*
X132046857Y-108746380D02*
X131475428Y-108746380D01*
X131761142Y-108746380D02*
X131761142Y-107746380D01*
X131665904Y-107889238D01*
X131570666Y-107984476D01*
X131475428Y-108032095D01*
X132380190Y-108746380D02*
X132904000Y-108079714D01*
X132380190Y-108079714D02*
X132904000Y-108746380D01*
X133475428Y-107746380D02*
X133570666Y-107746380D01*
X133665904Y-107794000D01*
X133713523Y-107841619D01*
X133761142Y-107936857D01*
X133808761Y-108127333D01*
X133808761Y-108365428D01*
X133761142Y-108555904D01*
X133713523Y-108651142D01*
X133665904Y-108698761D01*
X133570666Y-108746380D01*
X133475428Y-108746380D01*
X133380190Y-108698761D01*
X133332571Y-108651142D01*
X133284952Y-108555904D01*
X133237333Y-108365428D01*
X133237333Y-108127333D01*
X133284952Y-107936857D01*
X133332571Y-107841619D01*
X133380190Y-107794000D01*
X133475428Y-107746380D01*
X134189714Y-107841619D02*
X134237333Y-107794000D01*
X134332571Y-107746380D01*
X134570666Y-107746380D01*
X134665904Y-107794000D01*
X134713523Y-107841619D01*
X134761142Y-107936857D01*
X134761142Y-108032095D01*
X134713523Y-108174952D01*
X134142095Y-108746380D01*
X134761142Y-108746380D01*
X129856380Y-105027333D02*
X130570666Y-105027333D01*
X130713523Y-105074952D01*
X130808761Y-105170190D01*
X130856380Y-105313047D01*
X130856380Y-105408285D01*
X129951619Y-104598761D02*
X129904000Y-104551142D01*
X129856380Y-104455904D01*
X129856380Y-104217809D01*
X129904000Y-104122571D01*
X129951619Y-104074952D01*
X130046857Y-104027333D01*
X130142095Y-104027333D01*
X130284952Y-104074952D01*
X130856380Y-104646380D01*
X130856380Y-104027333D01*
%TO.C,D3*%
X138155333Y-63709380D02*
X138155333Y-62709380D01*
X138726761Y-63709380D01*
X138726761Y-62709380D01*
X139583904Y-63661761D02*
X139488666Y-63709380D01*
X139298190Y-63709380D01*
X139202952Y-63661761D01*
X139155333Y-63566523D01*
X139155333Y-63185571D01*
X139202952Y-63090333D01*
X139298190Y-63042714D01*
X139488666Y-63042714D01*
X139583904Y-63090333D01*
X139631523Y-63185571D01*
X139631523Y-63280809D01*
X139155333Y-63376047D01*
X140202952Y-63709380D02*
X140107714Y-63661761D01*
X140060095Y-63614142D01*
X140012476Y-63518904D01*
X140012476Y-63233190D01*
X140060095Y-63137952D01*
X140107714Y-63090333D01*
X140202952Y-63042714D01*
X140345809Y-63042714D01*
X140441047Y-63090333D01*
X140488666Y-63137952D01*
X140536285Y-63233190D01*
X140536285Y-63518904D01*
X140488666Y-63614142D01*
X140441047Y-63661761D01*
X140345809Y-63709380D01*
X140202952Y-63709380D01*
X140964857Y-63709380D02*
X140964857Y-62709380D01*
X141345809Y-62709380D01*
X141441047Y-62757000D01*
X141488666Y-62804619D01*
X141536285Y-62899857D01*
X141536285Y-63042714D01*
X141488666Y-63137952D01*
X141441047Y-63185571D01*
X141345809Y-63233190D01*
X140964857Y-63233190D01*
X141964857Y-63709380D02*
X141964857Y-63042714D01*
X141964857Y-62709380D02*
X141917238Y-62757000D01*
X141964857Y-62804619D01*
X142012476Y-62757000D01*
X141964857Y-62709380D01*
X141964857Y-62804619D01*
X142345809Y-63709380D02*
X142869619Y-63042714D01*
X142345809Y-63042714D02*
X142869619Y-63709380D01*
X143631523Y-63661761D02*
X143536285Y-63709380D01*
X143345809Y-63709380D01*
X143250571Y-63661761D01*
X143202952Y-63566523D01*
X143202952Y-63185571D01*
X143250571Y-63090333D01*
X143345809Y-63042714D01*
X143536285Y-63042714D01*
X143631523Y-63090333D01*
X143679142Y-63185571D01*
X143679142Y-63280809D01*
X143202952Y-63376047D01*
X144250571Y-63709380D02*
X144155333Y-63661761D01*
X144107714Y-63566523D01*
X144107714Y-62709380D01*
X144393428Y-63804619D02*
X145155333Y-63804619D01*
X145250571Y-62709380D02*
X145822000Y-62709380D01*
X145536285Y-63709380D02*
X145536285Y-62709380D01*
X146155333Y-63709380D02*
X146155333Y-62709380D01*
X146155333Y-63185571D02*
X146726761Y-63185571D01*
X146726761Y-63709380D02*
X146726761Y-62709380D01*
X147060095Y-62709380D02*
X147631523Y-62709380D01*
X147345809Y-63709380D02*
X147345809Y-62709380D01*
X143274380Y-57855095D02*
X142274380Y-57855095D01*
X142274380Y-57617000D01*
X142322000Y-57474142D01*
X142417238Y-57378904D01*
X142512476Y-57331285D01*
X142702952Y-57283666D01*
X142845809Y-57283666D01*
X143036285Y-57331285D01*
X143131523Y-57378904D01*
X143226761Y-57474142D01*
X143274380Y-57617000D01*
X143274380Y-57855095D01*
X142274380Y-56950333D02*
X142274380Y-56331285D01*
X142655333Y-56664619D01*
X142655333Y-56521761D01*
X142702952Y-56426523D01*
X142750571Y-56378904D01*
X142845809Y-56331285D01*
X143083904Y-56331285D01*
X143179142Y-56378904D01*
X143226761Y-56426523D01*
X143274380Y-56521761D01*
X143274380Y-56807476D01*
X143226761Y-56902714D01*
X143179142Y-56950333D01*
%TO.C,U1*%
D13*
X124035940Y-81758003D02*
X124035940Y-82786099D01*
X124096417Y-82907051D01*
X124156893Y-82967527D01*
X124277845Y-83028003D01*
X124519750Y-83028003D01*
X124640702Y-82967527D01*
X124701179Y-82907051D01*
X124761655Y-82786099D01*
X124761655Y-81758003D01*
X126031655Y-83028003D02*
X125305940Y-83028003D01*
X125668798Y-83028003D02*
X125668798Y-81758003D01*
X125547845Y-81939432D01*
X125426893Y-82060384D01*
X125305940Y-82120860D01*
%TO.C,D2*%
D12*
X146859333Y-63709380D02*
X146859333Y-62709380D01*
X147430761Y-63709380D01*
X147430761Y-62709380D01*
X148287904Y-63661761D02*
X148192666Y-63709380D01*
X148002190Y-63709380D01*
X147906952Y-63661761D01*
X147859333Y-63566523D01*
X147859333Y-63185571D01*
X147906952Y-63090333D01*
X148002190Y-63042714D01*
X148192666Y-63042714D01*
X148287904Y-63090333D01*
X148335523Y-63185571D01*
X148335523Y-63280809D01*
X147859333Y-63376047D01*
X148906952Y-63709380D02*
X148811714Y-63661761D01*
X148764095Y-63614142D01*
X148716476Y-63518904D01*
X148716476Y-63233190D01*
X148764095Y-63137952D01*
X148811714Y-63090333D01*
X148906952Y-63042714D01*
X149049809Y-63042714D01*
X149145047Y-63090333D01*
X149192666Y-63137952D01*
X149240285Y-63233190D01*
X149240285Y-63518904D01*
X149192666Y-63614142D01*
X149145047Y-63661761D01*
X149049809Y-63709380D01*
X148906952Y-63709380D01*
X149668857Y-63709380D02*
X149668857Y-62709380D01*
X150049809Y-62709380D01*
X150145047Y-62757000D01*
X150192666Y-62804619D01*
X150240285Y-62899857D01*
X150240285Y-63042714D01*
X150192666Y-63137952D01*
X150145047Y-63185571D01*
X150049809Y-63233190D01*
X149668857Y-63233190D01*
X150668857Y-63709380D02*
X150668857Y-63042714D01*
X150668857Y-62709380D02*
X150621238Y-62757000D01*
X150668857Y-62804619D01*
X150716476Y-62757000D01*
X150668857Y-62709380D01*
X150668857Y-62804619D01*
X151049809Y-63709380D02*
X151573619Y-63042714D01*
X151049809Y-63042714D02*
X151573619Y-63709380D01*
X152335523Y-63661761D02*
X152240285Y-63709380D01*
X152049809Y-63709380D01*
X151954571Y-63661761D01*
X151906952Y-63566523D01*
X151906952Y-63185571D01*
X151954571Y-63090333D01*
X152049809Y-63042714D01*
X152240285Y-63042714D01*
X152335523Y-63090333D01*
X152383142Y-63185571D01*
X152383142Y-63280809D01*
X151906952Y-63376047D01*
X152954571Y-63709380D02*
X152859333Y-63661761D01*
X152811714Y-63566523D01*
X152811714Y-62709380D01*
X153097428Y-63804619D02*
X153859333Y-63804619D01*
X153954571Y-62709380D02*
X154526000Y-62709380D01*
X154240285Y-63709380D02*
X154240285Y-62709380D01*
X154859333Y-63709380D02*
X154859333Y-62709380D01*
X154859333Y-63185571D02*
X155430761Y-63185571D01*
X155430761Y-63709380D02*
X155430761Y-62709380D01*
X155764095Y-62709380D02*
X156335523Y-62709380D01*
X156049809Y-63709380D02*
X156049809Y-62709380D01*
X151978380Y-57855095D02*
X150978380Y-57855095D01*
X150978380Y-57617000D01*
X151026000Y-57474142D01*
X151121238Y-57378904D01*
X151216476Y-57331285D01*
X151406952Y-57283666D01*
X151549809Y-57283666D01*
X151740285Y-57331285D01*
X151835523Y-57378904D01*
X151930761Y-57474142D01*
X151978380Y-57617000D01*
X151978380Y-57855095D01*
X151073619Y-56902714D02*
X151026000Y-56855095D01*
X150978380Y-56759857D01*
X150978380Y-56521761D01*
X151026000Y-56426523D01*
X151073619Y-56378904D01*
X151168857Y-56331285D01*
X151264095Y-56331285D01*
X151406952Y-56378904D01*
X151978380Y-56950333D01*
X151978380Y-56331285D01*
%TO.C,D1*%
X155297333Y-63709380D02*
X155297333Y-62709380D01*
X155868761Y-63709380D01*
X155868761Y-62709380D01*
X156725904Y-63661761D02*
X156630666Y-63709380D01*
X156440190Y-63709380D01*
X156344952Y-63661761D01*
X156297333Y-63566523D01*
X156297333Y-63185571D01*
X156344952Y-63090333D01*
X156440190Y-63042714D01*
X156630666Y-63042714D01*
X156725904Y-63090333D01*
X156773523Y-63185571D01*
X156773523Y-63280809D01*
X156297333Y-63376047D01*
X157344952Y-63709380D02*
X157249714Y-63661761D01*
X157202095Y-63614142D01*
X157154476Y-63518904D01*
X157154476Y-63233190D01*
X157202095Y-63137952D01*
X157249714Y-63090333D01*
X157344952Y-63042714D01*
X157487809Y-63042714D01*
X157583047Y-63090333D01*
X157630666Y-63137952D01*
X157678285Y-63233190D01*
X157678285Y-63518904D01*
X157630666Y-63614142D01*
X157583047Y-63661761D01*
X157487809Y-63709380D01*
X157344952Y-63709380D01*
X158106857Y-63709380D02*
X158106857Y-62709380D01*
X158487809Y-62709380D01*
X158583047Y-62757000D01*
X158630666Y-62804619D01*
X158678285Y-62899857D01*
X158678285Y-63042714D01*
X158630666Y-63137952D01*
X158583047Y-63185571D01*
X158487809Y-63233190D01*
X158106857Y-63233190D01*
X159106857Y-63709380D02*
X159106857Y-63042714D01*
X159106857Y-62709380D02*
X159059238Y-62757000D01*
X159106857Y-62804619D01*
X159154476Y-62757000D01*
X159106857Y-62709380D01*
X159106857Y-62804619D01*
X159487809Y-63709380D02*
X160011619Y-63042714D01*
X159487809Y-63042714D02*
X160011619Y-63709380D01*
X160773523Y-63661761D02*
X160678285Y-63709380D01*
X160487809Y-63709380D01*
X160392571Y-63661761D01*
X160344952Y-63566523D01*
X160344952Y-63185571D01*
X160392571Y-63090333D01*
X160487809Y-63042714D01*
X160678285Y-63042714D01*
X160773523Y-63090333D01*
X160821142Y-63185571D01*
X160821142Y-63280809D01*
X160344952Y-63376047D01*
X161392571Y-63709380D02*
X161297333Y-63661761D01*
X161249714Y-63566523D01*
X161249714Y-62709380D01*
X161535428Y-63804619D02*
X162297333Y-63804619D01*
X162392571Y-62709380D02*
X162964000Y-62709380D01*
X162678285Y-63709380D02*
X162678285Y-62709380D01*
X163297333Y-63709380D02*
X163297333Y-62709380D01*
X163297333Y-63185571D02*
X163868761Y-63185571D01*
X163868761Y-63709380D02*
X163868761Y-62709380D01*
X164202095Y-62709380D02*
X164773523Y-62709380D01*
X164487809Y-63709380D02*
X164487809Y-62709380D01*
X160416380Y-57855095D02*
X159416380Y-57855095D01*
X159416380Y-57617000D01*
X159464000Y-57474142D01*
X159559238Y-57378904D01*
X159654476Y-57331285D01*
X159844952Y-57283666D01*
X159987809Y-57283666D01*
X160178285Y-57331285D01*
X160273523Y-57378904D01*
X160368761Y-57474142D01*
X160416380Y-57617000D01*
X160416380Y-57855095D01*
X160416380Y-56331285D02*
X160416380Y-56902714D01*
X160416380Y-56617000D02*
X159416380Y-56617000D01*
X159559238Y-56712238D01*
X159654476Y-56807476D01*
X159702095Y-56902714D01*
%TO.C,J6*%
X107094904Y-60385742D02*
X107047285Y-60433361D01*
X106904428Y-60480980D01*
X106809190Y-60480980D01*
X106666333Y-60433361D01*
X106571095Y-60338123D01*
X106523476Y-60242885D01*
X106475857Y-60052409D01*
X106475857Y-59909552D01*
X106523476Y-59719076D01*
X106571095Y-59623838D01*
X106666333Y-59528600D01*
X106809190Y-59480980D01*
X106904428Y-59480980D01*
X107047285Y-59528600D01*
X107094904Y-59576219D01*
X107666333Y-60480980D02*
X107571095Y-60433361D01*
X107523476Y-60385742D01*
X107475857Y-60290504D01*
X107475857Y-60004790D01*
X107523476Y-59909552D01*
X107571095Y-59861933D01*
X107666333Y-59814314D01*
X107809190Y-59814314D01*
X107904428Y-59861933D01*
X107952047Y-59909552D01*
X107999666Y-60004790D01*
X107999666Y-60290504D01*
X107952047Y-60385742D01*
X107904428Y-60433361D01*
X107809190Y-60480980D01*
X107666333Y-60480980D01*
X108428238Y-59814314D02*
X108428238Y-60480980D01*
X108428238Y-59909552D02*
X108475857Y-59861933D01*
X108571095Y-59814314D01*
X108713952Y-59814314D01*
X108809190Y-59861933D01*
X108856809Y-59957171D01*
X108856809Y-60480980D01*
X109333000Y-59814314D02*
X109333000Y-60480980D01*
X109333000Y-59909552D02*
X109380619Y-59861933D01*
X109475857Y-59814314D01*
X109618714Y-59814314D01*
X109713952Y-59861933D01*
X109761571Y-59957171D01*
X109761571Y-60480980D01*
X109999666Y-60576219D02*
X110761571Y-60576219D01*
X111190142Y-59480980D02*
X111285380Y-59480980D01*
X111380619Y-59528600D01*
X111428238Y-59576219D01*
X111475857Y-59671457D01*
X111523476Y-59861933D01*
X111523476Y-60100028D01*
X111475857Y-60290504D01*
X111428238Y-60385742D01*
X111380619Y-60433361D01*
X111285380Y-60480980D01*
X111190142Y-60480980D01*
X111094904Y-60433361D01*
X111047285Y-60385742D01*
X110999666Y-60290504D01*
X110952047Y-60100028D01*
X110952047Y-59861933D01*
X110999666Y-59671457D01*
X111047285Y-59576219D01*
X111094904Y-59528600D01*
X111190142Y-59480980D01*
X112475857Y-60480980D02*
X111904428Y-60480980D01*
X112190142Y-60480980D02*
X112190142Y-59480980D01*
X112094904Y-59623838D01*
X111999666Y-59719076D01*
X111904428Y-59766695D01*
X112809190Y-60480980D02*
X113333000Y-59814314D01*
X112809190Y-59814314D02*
X113333000Y-60480980D01*
X113904428Y-59480980D02*
X113999666Y-59480980D01*
X114094904Y-59528600D01*
X114142523Y-59576219D01*
X114190142Y-59671457D01*
X114237761Y-59861933D01*
X114237761Y-60100028D01*
X114190142Y-60290504D01*
X114142523Y-60385742D01*
X114094904Y-60433361D01*
X113999666Y-60480980D01*
X113904428Y-60480980D01*
X113809190Y-60433361D01*
X113761571Y-60385742D01*
X113713952Y-60290504D01*
X113666333Y-60100028D01*
X113666333Y-59861933D01*
X113713952Y-59671457D01*
X113761571Y-59576219D01*
X113809190Y-59528600D01*
X113904428Y-59480980D01*
X114618714Y-59576219D02*
X114666333Y-59528600D01*
X114761571Y-59480980D01*
X114999666Y-59480980D01*
X115094904Y-59528600D01*
X115142523Y-59576219D01*
X115190142Y-59671457D01*
X115190142Y-59766695D01*
X115142523Y-59909552D01*
X114571095Y-60480980D01*
X115190142Y-60480980D01*
X110285380Y-56761933D02*
X110999666Y-56761933D01*
X111142523Y-56809552D01*
X111237761Y-56904790D01*
X111285380Y-57047647D01*
X111285380Y-57142885D01*
X110285380Y-55857171D02*
X110285380Y-56047647D01*
X110333000Y-56142885D01*
X110380619Y-56190504D01*
X110523476Y-56285742D01*
X110713952Y-56333361D01*
X111094904Y-56333361D01*
X111190142Y-56285742D01*
X111237761Y-56238123D01*
X111285380Y-56142885D01*
X111285380Y-55952409D01*
X111237761Y-55857171D01*
X111190142Y-55809552D01*
X111094904Y-55761933D01*
X110856809Y-55761933D01*
X110761571Y-55809552D01*
X110713952Y-55857171D01*
X110666333Y-55952409D01*
X110666333Y-56142885D01*
X110713952Y-56238123D01*
X110761571Y-56285742D01*
X110856809Y-56333361D01*
%TO.C,J5*%
X148791904Y-108354142D02*
X148744285Y-108401761D01*
X148601428Y-108449380D01*
X148506190Y-108449380D01*
X148363333Y-108401761D01*
X148268095Y-108306523D01*
X148220476Y-108211285D01*
X148172857Y-108020809D01*
X148172857Y-107877952D01*
X148220476Y-107687476D01*
X148268095Y-107592238D01*
X148363333Y-107497000D01*
X148506190Y-107449380D01*
X148601428Y-107449380D01*
X148744285Y-107497000D01*
X148791904Y-107544619D01*
X149363333Y-108449380D02*
X149268095Y-108401761D01*
X149220476Y-108354142D01*
X149172857Y-108258904D01*
X149172857Y-107973190D01*
X149220476Y-107877952D01*
X149268095Y-107830333D01*
X149363333Y-107782714D01*
X149506190Y-107782714D01*
X149601428Y-107830333D01*
X149649047Y-107877952D01*
X149696666Y-107973190D01*
X149696666Y-108258904D01*
X149649047Y-108354142D01*
X149601428Y-108401761D01*
X149506190Y-108449380D01*
X149363333Y-108449380D01*
X150125238Y-107782714D02*
X150125238Y-108449380D01*
X150125238Y-107877952D02*
X150172857Y-107830333D01*
X150268095Y-107782714D01*
X150410952Y-107782714D01*
X150506190Y-107830333D01*
X150553809Y-107925571D01*
X150553809Y-108449380D01*
X151030000Y-107782714D02*
X151030000Y-108449380D01*
X151030000Y-107877952D02*
X151077619Y-107830333D01*
X151172857Y-107782714D01*
X151315714Y-107782714D01*
X151410952Y-107830333D01*
X151458571Y-107925571D01*
X151458571Y-108449380D01*
X151696666Y-108544619D02*
X152458571Y-108544619D01*
X152887142Y-107449380D02*
X152982380Y-107449380D01*
X153077619Y-107497000D01*
X153125238Y-107544619D01*
X153172857Y-107639857D01*
X153220476Y-107830333D01*
X153220476Y-108068428D01*
X153172857Y-108258904D01*
X153125238Y-108354142D01*
X153077619Y-108401761D01*
X152982380Y-108449380D01*
X152887142Y-108449380D01*
X152791904Y-108401761D01*
X152744285Y-108354142D01*
X152696666Y-108258904D01*
X152649047Y-108068428D01*
X152649047Y-107830333D01*
X152696666Y-107639857D01*
X152744285Y-107544619D01*
X152791904Y-107497000D01*
X152887142Y-107449380D01*
X154172857Y-108449380D02*
X153601428Y-108449380D01*
X153887142Y-108449380D02*
X153887142Y-107449380D01*
X153791904Y-107592238D01*
X153696666Y-107687476D01*
X153601428Y-107735095D01*
X154506190Y-108449380D02*
X155030000Y-107782714D01*
X154506190Y-107782714D02*
X155030000Y-108449380D01*
X155601428Y-107449380D02*
X155696666Y-107449380D01*
X155791904Y-107497000D01*
X155839523Y-107544619D01*
X155887142Y-107639857D01*
X155934761Y-107830333D01*
X155934761Y-108068428D01*
X155887142Y-108258904D01*
X155839523Y-108354142D01*
X155791904Y-108401761D01*
X155696666Y-108449380D01*
X155601428Y-108449380D01*
X155506190Y-108401761D01*
X155458571Y-108354142D01*
X155410952Y-108258904D01*
X155363333Y-108068428D01*
X155363333Y-107830333D01*
X155410952Y-107639857D01*
X155458571Y-107544619D01*
X155506190Y-107497000D01*
X155601428Y-107449380D01*
X156315714Y-107544619D02*
X156363333Y-107497000D01*
X156458571Y-107449380D01*
X156696666Y-107449380D01*
X156791904Y-107497000D01*
X156839523Y-107544619D01*
X156887142Y-107639857D01*
X156887142Y-107735095D01*
X156839523Y-107877952D01*
X156268095Y-108449380D01*
X156887142Y-108449380D01*
X151982380Y-104730333D02*
X152696666Y-104730333D01*
X152839523Y-104777952D01*
X152934761Y-104873190D01*
X152982380Y-105016047D01*
X152982380Y-105111285D01*
X151982380Y-103777952D02*
X151982380Y-104254142D01*
X152458571Y-104301761D01*
X152410952Y-104254142D01*
X152363333Y-104158904D01*
X152363333Y-103920809D01*
X152410952Y-103825571D01*
X152458571Y-103777952D01*
X152553809Y-103730333D01*
X152791904Y-103730333D01*
X152887142Y-103777952D01*
X152934761Y-103825571D01*
X152982380Y-103920809D01*
X152982380Y-104158904D01*
X152934761Y-104254142D01*
X152887142Y-104301761D01*
%TO.C,J1*%
X118905904Y-108552142D02*
X118858285Y-108599761D01*
X118715428Y-108647380D01*
X118620190Y-108647380D01*
X118477333Y-108599761D01*
X118382095Y-108504523D01*
X118334476Y-108409285D01*
X118286857Y-108218809D01*
X118286857Y-108075952D01*
X118334476Y-107885476D01*
X118382095Y-107790238D01*
X118477333Y-107695000D01*
X118620190Y-107647380D01*
X118715428Y-107647380D01*
X118858285Y-107695000D01*
X118905904Y-107742619D01*
X119477333Y-108647380D02*
X119382095Y-108599761D01*
X119334476Y-108552142D01*
X119286857Y-108456904D01*
X119286857Y-108171190D01*
X119334476Y-108075952D01*
X119382095Y-108028333D01*
X119477333Y-107980714D01*
X119620190Y-107980714D01*
X119715428Y-108028333D01*
X119763047Y-108075952D01*
X119810666Y-108171190D01*
X119810666Y-108456904D01*
X119763047Y-108552142D01*
X119715428Y-108599761D01*
X119620190Y-108647380D01*
X119477333Y-108647380D01*
X120239238Y-107980714D02*
X120239238Y-108647380D01*
X120239238Y-108075952D02*
X120286857Y-108028333D01*
X120382095Y-107980714D01*
X120524952Y-107980714D01*
X120620190Y-108028333D01*
X120667809Y-108123571D01*
X120667809Y-108647380D01*
X121144000Y-107980714D02*
X121144000Y-108647380D01*
X121144000Y-108075952D02*
X121191619Y-108028333D01*
X121286857Y-107980714D01*
X121429714Y-107980714D01*
X121524952Y-108028333D01*
X121572571Y-108123571D01*
X121572571Y-108647380D01*
X121810666Y-108742619D02*
X122572571Y-108742619D01*
X123001142Y-107647380D02*
X123096380Y-107647380D01*
X123191619Y-107695000D01*
X123239238Y-107742619D01*
X123286857Y-107837857D01*
X123334476Y-108028333D01*
X123334476Y-108266428D01*
X123286857Y-108456904D01*
X123239238Y-108552142D01*
X123191619Y-108599761D01*
X123096380Y-108647380D01*
X123001142Y-108647380D01*
X122905904Y-108599761D01*
X122858285Y-108552142D01*
X122810666Y-108456904D01*
X122763047Y-108266428D01*
X122763047Y-108028333D01*
X122810666Y-107837857D01*
X122858285Y-107742619D01*
X122905904Y-107695000D01*
X123001142Y-107647380D01*
X124286857Y-108647380D02*
X123715428Y-108647380D01*
X124001142Y-108647380D02*
X124001142Y-107647380D01*
X123905904Y-107790238D01*
X123810666Y-107885476D01*
X123715428Y-107933095D01*
X124620190Y-108647380D02*
X125144000Y-107980714D01*
X124620190Y-107980714D02*
X125144000Y-108647380D01*
X125715428Y-107647380D02*
X125810666Y-107647380D01*
X125905904Y-107695000D01*
X125953523Y-107742619D01*
X126001142Y-107837857D01*
X126048761Y-108028333D01*
X126048761Y-108266428D01*
X126001142Y-108456904D01*
X125953523Y-108552142D01*
X125905904Y-108599761D01*
X125810666Y-108647380D01*
X125715428Y-108647380D01*
X125620190Y-108599761D01*
X125572571Y-108552142D01*
X125524952Y-108456904D01*
X125477333Y-108266428D01*
X125477333Y-108028333D01*
X125524952Y-107837857D01*
X125572571Y-107742619D01*
X125620190Y-107695000D01*
X125715428Y-107647380D01*
X126429714Y-107742619D02*
X126477333Y-107695000D01*
X126572571Y-107647380D01*
X126810666Y-107647380D01*
X126905904Y-107695000D01*
X126953523Y-107742619D01*
X127001142Y-107837857D01*
X127001142Y-107933095D01*
X126953523Y-108075952D01*
X126382095Y-108647380D01*
X127001142Y-108647380D01*
X123191619Y-104261666D02*
X122477333Y-104261666D01*
X122334476Y-104214047D01*
X122239238Y-104118809D01*
X122191619Y-103975952D01*
X122191619Y-103880714D01*
X122191619Y-105261666D02*
X122191619Y-104690238D01*
X122191619Y-104975952D02*
X123191619Y-104975952D01*
X123048761Y-104880714D01*
X122953523Y-104785476D01*
X122905904Y-104690238D01*
%TD*%
M02*
