%TF.GenerationSoftware,KiCad,Pcbnew,(5.1.12)-1*%
%TF.CreationDate,2022-06-22T10:59:22-05:00*%
%TF.ProjectId,Unidad central,556e6964-6164-4206-9365-6e7472616c2e,rev?*%
%TF.SameCoordinates,Original*%
%TF.FileFunction,Copper,L1,Top*%
%TF.FilePolarity,Positive*%
%FSLAX46Y46*%
G04 Gerber Fmt 4.6, Leading zero omitted, Abs format (unit mm)*
G04 Created by KiCad (PCBNEW (5.1.12)-1) date 2022-06-22 10:59:22*
%MOMM*%
%LPD*%
G01*
G04 APERTURE LIST*
%TA.AperFunction,ComponentPad*%
%ADD10C,1.800000*%
%TD*%
%TA.AperFunction,ComponentPad*%
%ADD11R,1.700000X1.700000*%
%TD*%
%TA.AperFunction,ComponentPad*%
%ADD12C,4.650000*%
%TD*%
%TA.AperFunction,ComponentPad*%
%ADD13C,1.665000*%
%TD*%
%TA.AperFunction,ComponentPad*%
%ADD14R,1.665000X1.665000*%
%TD*%
%TA.AperFunction,Conductor*%
%ADD15C,0.800000*%
%TD*%
G04 APERTURE END LIST*
D10*
%TO.P,R6,2*%
%TO.N,Net-(J6-Pad2)*%
X122857000Y-59921100D03*
%TO.P,R6,1*%
%TO.N,Net-(D1-Pad2)*%
X133017000Y-59921100D03*
%TD*%
%TO.P,R5,2*%
%TO.N,Net-(J5-Pad2)*%
X172164000Y-95224600D03*
%TO.P,R5,1*%
%TO.N,Net-(D1-Pad2)*%
X162004000Y-95224600D03*
%TD*%
%TO.P,R4,2*%
%TO.N,Net-(J4-Pad2)*%
X172342000Y-88742500D03*
%TO.P,R4,1*%
%TO.N,Net-(D1-Pad2)*%
X162182000Y-88742500D03*
%TD*%
%TO.P,R3,2*%
%TO.N,Net-(J3-Pad2)*%
X172342000Y-81991200D03*
%TO.P,R3,1*%
%TO.N,Net-(D1-Pad2)*%
X162182000Y-81991200D03*
%TD*%
%TO.P,R2,2*%
%TO.N,Net-(J2-Pad2)*%
X172430000Y-76131400D03*
%TO.P,R2,1*%
%TO.N,Net-(D1-Pad2)*%
X162270000Y-76131400D03*
%TD*%
%TO.P,R1,2*%
%TO.N,Net-(J1-Pad2)*%
X172369000Y-69883000D03*
%TO.P,R1,1*%
%TO.N,Net-(D1-Pad2)*%
X162209000Y-69883000D03*
%TD*%
%TO.P,J4,2*%
%TO.N,Net-(J4-Pad2)*%
X144747000Y-105768000D03*
D11*
%TO.P,J4,1*%
%TO.N,Net-(D1-Pad3)*%
X144747000Y-103228000D03*
%TD*%
D10*
%TO.P,J3,2*%
%TO.N,Net-(J3-Pad2)*%
X137279000Y-105865000D03*
D11*
%TO.P,J3,1*%
%TO.N,Net-(D1-Pad3)*%
X137279000Y-103325000D03*
%TD*%
D10*
%TO.P,J2,2*%
%TO.N,Net-(J2-Pad2)*%
X130404000Y-105964000D03*
D11*
%TO.P,J2,1*%
%TO.N,Net-(D1-Pad3)*%
X130404000Y-103424000D03*
%TD*%
D10*
%TO.P,D3,4*%
%TO.N,Net-(D3-Pad4)*%
X142822000Y-60927000D03*
%TO.P,D3,3*%
%TO.N,Net-(D1-Pad3)*%
X142822000Y-58387000D03*
%TO.P,D3,2*%
%TO.N,Net-(D1-Pad2)*%
X142822000Y-55847000D03*
D11*
%TO.P,D3,1*%
%TO.N,Net-(D3-Pad1)*%
X142822000Y-53307000D03*
%TD*%
D12*
%TO.P,U1,MH4*%
%TO.N,Net-(U1-PadMH4)*%
X155375000Y-90985200D03*
%TO.P,U1,MH3*%
%TO.N,Net-(U1-PadMH3)*%
X155375000Y-66985200D03*
%TO.P,U1,MH2*%
%TO.N,Net-(U1-PadMH2)*%
X102375000Y-66985200D03*
%TO.P,U1,MH1*%
%TO.N,Net-(U1-PadMH1)*%
X102375000Y-90985200D03*
D10*
%TO.P,U1,36*%
%TO.N,Net-(U1-Pad36)*%
X107272000Y-91685200D03*
%TO.P,U1,35*%
%TO.N,Net-(U1-Pad35)*%
X109812000Y-91685200D03*
D13*
%TO.P,U1,34*%
%TO.N,Net-(U1-Pad34)*%
X112352000Y-91685200D03*
%TO.P,U1,33*%
%TO.N,Net-(U1-Pad33)*%
X114892000Y-91685200D03*
%TO.P,U1,32*%
%TO.N,Net-(U1-Pad32)*%
X117432000Y-91685200D03*
%TO.P,U1,31*%
%TO.N,Net-(U1-Pad31)*%
X119972000Y-91685200D03*
%TO.P,U1,30*%
%TO.N,Net-(U1-Pad30)*%
X122512000Y-91685200D03*
%TO.P,U1,29*%
%TO.N,Net-(U1-Pad29)*%
X125052000Y-91685200D03*
%TO.P,U1,28*%
%TO.N,Net-(U1-Pad28)*%
X127592000Y-91685200D03*
%TO.P,U1,27*%
%TO.N,Net-(U1-Pad27)*%
X130132000Y-91685200D03*
%TO.P,U1,26*%
%TO.N,Net-(U1-Pad26)*%
X132672000Y-91685200D03*
%TO.P,U1,25*%
%TO.N,Net-(U1-Pad25)*%
X135212000Y-91685200D03*
D10*
%TO.P,U1,24*%
%TO.N,Net-(U1-Pad24)*%
X137752000Y-91685200D03*
%TO.P,U1,23*%
%TO.N,Net-(J1-Pad2)*%
X140292000Y-91685200D03*
%TO.P,U1,22*%
%TO.N,Net-(J2-Pad2)*%
X142832000Y-91685200D03*
%TO.P,U1,21*%
%TO.N,Net-(J3-Pad2)*%
X145372000Y-91685200D03*
%TO.P,U1,20*%
%TO.N,Net-(J4-Pad2)*%
X147912000Y-91685200D03*
D14*
%TO.P,U1,19*%
%TO.N,Net-(J5-Pad2)*%
X150452000Y-91685200D03*
D10*
%TO.P,U1,18*%
%TO.N,Net-(U1-Pad18)*%
X107272000Y-66285200D03*
%TO.P,U1,17*%
%TO.N,Net-(D1-Pad3)*%
X109812000Y-66285200D03*
%TO.P,U1,16*%
%TO.N,Net-(U1-Pad16)*%
X112352000Y-66285200D03*
%TO.P,U1,15*%
%TO.N,Net-(D1-Pad2)*%
X114892000Y-66285200D03*
D13*
%TO.P,U1,14*%
%TO.N,Net-(U1-Pad14)*%
X117432000Y-66285200D03*
%TO.P,U1,13*%
%TO.N,Net-(U1-Pad13)*%
X119972000Y-66285200D03*
%TO.P,U1,12*%
%TO.N,Net-(U1-Pad12)*%
X122512000Y-66285200D03*
%TO.P,U1,11*%
%TO.N,Net-(U1-Pad11)*%
X125052000Y-66285200D03*
%TO.P,U1,10*%
%TO.N,Net-(U1-Pad10)*%
X127592000Y-66285200D03*
%TO.P,U1,9*%
%TO.N,Net-(U1-Pad9)*%
X130132000Y-66285200D03*
D10*
%TO.P,U1,8*%
%TO.N,Net-(J6-Pad2)*%
X132672000Y-66285200D03*
D13*
%TO.P,U1,7*%
%TO.N,Net-(U1-Pad7)*%
X135212000Y-66285200D03*
%TO.P,U1,6*%
%TO.N,Net-(U1-Pad6)*%
X137752000Y-66285200D03*
%TO.P,U1,5*%
%TO.N,Net-(D3-Pad4)*%
X140292000Y-66285200D03*
D10*
%TO.P,U1,4*%
%TO.N,Net-(D2-Pad4)*%
X142832000Y-66285200D03*
%TO.P,U1,3*%
%TO.N,Net-(D1-Pad4)*%
X145372000Y-66285200D03*
D13*
%TO.P,U1,2*%
%TO.N,Net-(U1-Pad2)*%
X147912000Y-66285200D03*
D14*
%TO.P,U1,1*%
%TO.N,Net-(U1-Pad1)*%
X150452000Y-66285200D03*
%TD*%
D10*
%TO.P,D2,4*%
%TO.N,Net-(D2-Pad4)*%
X151526000Y-60927000D03*
%TO.P,D2,3*%
%TO.N,Net-(D1-Pad3)*%
X151526000Y-58387000D03*
%TO.P,D2,2*%
%TO.N,Net-(D1-Pad2)*%
X151526000Y-55847000D03*
D11*
%TO.P,D2,1*%
%TO.N,Net-(D2-Pad1)*%
X151526000Y-53307000D03*
%TD*%
D10*
%TO.P,D1,4*%
%TO.N,Net-(D1-Pad4)*%
X159964000Y-60927000D03*
%TO.P,D1,3*%
%TO.N,Net-(D1-Pad3)*%
X159964000Y-58387000D03*
%TO.P,D1,2*%
%TO.N,Net-(D1-Pad2)*%
X159964000Y-55847000D03*
D11*
%TO.P,D1,1*%
%TO.N,Net-(D1-Pad1)*%
X159964000Y-53307000D03*
%TD*%
D10*
%TO.P,J6,2*%
%TO.N,Net-(J6-Pad2)*%
X110833000Y-57698600D03*
D11*
%TO.P,J6,1*%
%TO.N,Net-(D1-Pad3)*%
X110833000Y-55158600D03*
%TD*%
D10*
%TO.P,J5,2*%
%TO.N,Net-(J5-Pad2)*%
X152530000Y-105667000D03*
D11*
%TO.P,J5,1*%
%TO.N,Net-(D1-Pad3)*%
X152530000Y-103127000D03*
%TD*%
D10*
%TO.P,J1,2*%
%TO.N,Net-(J1-Pad2)*%
X122644000Y-105865000D03*
D11*
%TO.P,J1,1*%
%TO.N,Net-(D1-Pad3)*%
X122644000Y-103325000D03*
%TD*%
D15*
%TO.N,Net-(D1-Pad3)*%
X151526000Y-58387000D02*
X142822000Y-58387000D01*
X159964000Y-58387000D02*
X151526000Y-58387000D01*
X124094300Y-103325000D02*
X122644000Y-103325000D01*
X109812000Y-66285200D02*
X105762800Y-70334400D01*
X127449300Y-103424000D02*
X125821300Y-105052000D01*
X130404000Y-103424000D02*
X127449300Y-103424000D01*
X125821300Y-105052000D02*
X124094300Y-103325000D01*
X127157480Y-106388180D02*
X125821300Y-105052000D01*
X137279000Y-103325000D02*
X135953160Y-103325000D01*
X135953160Y-103325000D02*
X134622540Y-104655620D01*
X134622540Y-104655620D02*
X134622540Y-107170220D01*
X134622540Y-107170220D02*
X133151880Y-108640880D01*
X148485860Y-104785160D02*
X146928700Y-103228000D01*
X148485860Y-107297220D02*
X148485860Y-104785160D01*
X147492720Y-108290360D02*
X148485860Y-107297220D01*
X146928700Y-103228000D02*
X144747000Y-103228000D01*
X135742680Y-108290360D02*
X147492720Y-108290360D01*
X134622540Y-107170220D02*
X135742680Y-108290360D01*
X150144020Y-103127000D02*
X148485860Y-104785160D01*
X152530000Y-103127000D02*
X150144020Y-103127000D01*
X129250440Y-108640880D02*
X133151880Y-108640880D01*
X120655080Y-108640880D02*
X129250440Y-108640880D01*
X105762800Y-93748600D02*
X120655080Y-108640880D01*
X127157480Y-106547920D02*
X129250440Y-108640880D01*
X127157480Y-106388180D02*
X127157480Y-106547920D01*
X109812000Y-66285200D02*
X109812000Y-64582220D01*
X109812000Y-64582220D02*
X106768900Y-61539120D01*
X106768900Y-61539120D02*
X106768900Y-56733440D01*
X108343740Y-55158600D02*
X110833000Y-55158600D01*
X106768900Y-56733440D02*
X108343740Y-55158600D01*
X110833000Y-55348400D02*
X110833000Y-55158600D01*
X131830960Y-62786260D02*
X124393100Y-55348400D01*
X136956800Y-62786260D02*
X131830960Y-62786260D01*
X138394300Y-61364400D02*
X138378660Y-61364400D01*
X138378660Y-61364400D02*
X136956800Y-62786260D01*
X141371700Y-58387000D02*
X138394300Y-61364400D01*
X124393100Y-55348400D02*
X110833000Y-55348400D01*
X142822000Y-58387000D02*
X141371700Y-58387000D01*
X105762800Y-93748600D02*
X105762800Y-93735900D01*
X105762800Y-93748600D02*
X105696760Y-93748600D01*
X105696760Y-93748600D02*
X105496360Y-93548200D01*
X105496360Y-70600840D02*
X105762800Y-70334400D01*
X105496360Y-93548200D02*
X105496360Y-70600840D01*
%TO.N,Net-(D1-Pad2)*%
X163602400Y-93626200D02*
X162004000Y-95224600D01*
X162270000Y-76131400D02*
X163870700Y-74530700D01*
X162209000Y-69883000D02*
X162157100Y-69934900D01*
X162157100Y-69934900D02*
X118541700Y-69934900D01*
X118541700Y-69934900D02*
X114892000Y-66285200D01*
X163661900Y-68430100D02*
X162209000Y-69883000D01*
X163661900Y-59544900D02*
X159964000Y-55847000D01*
X151526000Y-55847000D02*
X159964000Y-55847000D01*
X142822000Y-55847000D02*
X137091100Y-55847000D01*
X137091100Y-55847000D02*
X133017000Y-59921100D01*
X151526000Y-55847000D02*
X142822000Y-55847000D01*
X163602400Y-93626200D02*
X163602400Y-93588880D01*
X163661900Y-59544900D02*
X163674740Y-59544900D01*
X163674740Y-59544900D02*
X168102240Y-63972400D01*
X168102240Y-68430100D02*
X163661900Y-68430100D01*
X163602400Y-90162900D02*
X162182000Y-88742500D01*
X163602400Y-93626200D02*
X163622460Y-93626200D01*
X163622460Y-93626200D02*
X165344080Y-91904580D01*
X165344080Y-91904580D02*
X163602400Y-90162900D01*
X168102240Y-63972400D02*
X168102240Y-66271180D01*
X168102240Y-66271180D02*
X168102240Y-68430100D01*
X165412900Y-91973400D02*
X165344080Y-91904580D01*
X172585380Y-91973400D02*
X165412900Y-91973400D01*
X174543720Y-90015060D02*
X172585380Y-91973400D01*
X173777400Y-67351400D02*
X174543720Y-68117720D01*
X173777400Y-67292980D02*
X173777400Y-67351400D01*
X172755600Y-66271180D02*
X173777400Y-67292980D01*
X168102240Y-66271180D02*
X172755600Y-66271180D01*
X174543720Y-68117720D02*
X174543720Y-73568560D01*
X163870700Y-74530700D02*
X163870700Y-74493060D01*
X163870700Y-74493060D02*
X164795200Y-73568560D01*
X164795200Y-73568560D02*
X173106080Y-73568560D01*
X174203360Y-74665840D02*
X174543720Y-74665840D01*
X173106080Y-73568560D02*
X174203360Y-74665840D01*
X174543720Y-73568560D02*
X174543720Y-74665840D01*
X171482100Y-79080600D02*
X173319200Y-79080600D01*
X168571500Y-81991200D02*
X171482100Y-79080600D01*
X173319200Y-79080600D02*
X174543720Y-77856080D01*
X162182000Y-81991200D02*
X168571500Y-81991200D01*
X174543720Y-77856080D02*
X174543720Y-90015060D01*
X174543720Y-74665840D02*
X174543720Y-77856080D01*
%TO.N,Net-(J1-Pad2)*%
X159047200Y-72930000D02*
X140292000Y-91685200D01*
X172369000Y-69883000D02*
X170968700Y-69883000D01*
X122644000Y-105865000D02*
X122505700Y-105865000D01*
X121371208Y-105865000D02*
X122644000Y-105865000D01*
X120261380Y-104755172D02*
X121371208Y-105865000D01*
X120261380Y-101277420D02*
X120261380Y-104755172D01*
X125255700Y-96283100D02*
X120261380Y-101277420D01*
X135694100Y-96283100D02*
X125255700Y-96283100D01*
X140292000Y-91685200D02*
X135694100Y-96283100D01*
X159047200Y-72930000D02*
X159047200Y-72778600D01*
X159047200Y-72778600D02*
X159849820Y-71975980D01*
X168875720Y-71975980D02*
X170968700Y-69883000D01*
X159849820Y-71975980D02*
X168875720Y-71975980D01*
%TO.N,Net-(J5-Pad2)*%
X153980400Y-96646400D02*
X150452000Y-93118000D01*
X152530000Y-105667000D02*
X152620800Y-105667000D01*
X169341900Y-96646400D02*
X170763700Y-95224600D01*
X172164000Y-95224600D02*
X170763700Y-95224600D01*
X150452000Y-91685200D02*
X150452000Y-93118000D01*
X169341900Y-96646400D02*
X169278900Y-96646400D01*
X169278900Y-96646400D02*
X164538660Y-101386640D01*
X164538660Y-101386640D02*
X155936720Y-101386640D01*
X153980400Y-99430320D02*
X153980400Y-96646400D01*
X152530000Y-105667000D02*
X154327400Y-105667000D01*
X154814790Y-105179610D02*
X154814790Y-100264710D01*
X154327400Y-105667000D02*
X154814790Y-105179610D01*
X154814790Y-100264710D02*
X153980400Y-99430320D01*
X155936720Y-101386640D02*
X154814790Y-100264710D01*
%TO.N,Net-(J6-Pad2)*%
X122857000Y-59921100D02*
X126307900Y-59921100D01*
X126307900Y-59921100D02*
X132672000Y-66285200D01*
X122857000Y-59921100D02*
X114505800Y-59921100D01*
X114505800Y-59921100D02*
X112283300Y-57698600D01*
X110833000Y-57698600D02*
X112283300Y-57698600D01*
%TO.N,Net-(D2-Pad4)*%
X151526000Y-60927000D02*
X148190200Y-60927000D01*
X148190200Y-60927000D02*
X142832000Y-66285200D01*
%TO.N,Net-(D1-Pad4)*%
X159964000Y-60927000D02*
X157645100Y-63245900D01*
X157645100Y-63245900D02*
X148411300Y-63245900D01*
X148411300Y-63245900D02*
X145372000Y-66285200D01*
%TO.N,Net-(D3-Pad4)*%
X142822000Y-60927000D02*
X142822000Y-62377300D01*
X140292000Y-66285200D02*
X140292000Y-64907300D01*
X140292000Y-64907300D02*
X142822000Y-62377300D01*
%TO.N,Net-(J2-Pad2)*%
X171029700Y-76131400D02*
X168055800Y-79105300D01*
X168055800Y-79105300D02*
X155411900Y-79105300D01*
X155411900Y-79105300D02*
X142832000Y-91685200D01*
X172430000Y-76131400D02*
X171029700Y-76131400D01*
X133494780Y-101022420D02*
X142832000Y-91685200D01*
X132750280Y-105964000D02*
X133494780Y-105219500D01*
X133494780Y-105219500D02*
X133494780Y-101022420D01*
X130404000Y-105964000D02*
X132750280Y-105964000D01*
%TO.N,Net-(J3-Pad2)*%
X150715400Y-86341800D02*
X145372000Y-91685200D01*
X172342000Y-81991200D02*
X170941700Y-81991200D01*
X138729300Y-98327900D02*
X145372000Y-91685200D01*
X138729300Y-98327900D02*
X138729300Y-100141620D01*
X138729300Y-100141620D02*
X139908280Y-101320600D01*
X139908280Y-104437801D02*
X138481081Y-105865000D01*
X138481081Y-105865000D02*
X137279000Y-105865000D01*
X139908280Y-101320600D02*
X139908280Y-104437801D01*
X150715400Y-86341800D02*
X150716400Y-86341800D01*
X150716400Y-86341800D02*
X152509220Y-84548980D01*
X168383920Y-84548980D02*
X170941700Y-81991200D01*
X152509220Y-84548980D02*
X168383920Y-84548980D01*
%TO.N,Net-(J4-Pad2)*%
X172342000Y-88742500D02*
X170941700Y-88742500D01*
X147912000Y-91685200D02*
X152255000Y-87342200D01*
X169541400Y-87342200D02*
X170941700Y-88742500D01*
X143296700Y-96300500D02*
X147912000Y-91685200D01*
X144747000Y-105768000D02*
X142925660Y-105768000D01*
X142925660Y-105768000D02*
X141770100Y-104612440D01*
X141770100Y-97827100D02*
X143296700Y-96300500D01*
X141770100Y-104612440D02*
X141770100Y-97827100D01*
X169541400Y-87342200D02*
X169462940Y-87342200D01*
X169462940Y-87342200D02*
X168562020Y-86441280D01*
X153155920Y-86441280D02*
X152255000Y-87342200D01*
X168562020Y-86441280D02*
X153155920Y-86441280D01*
%TD*%
M02*
