%TF.GenerationSoftware,KiCad,Pcbnew,(5.1.12)-1*%
%TF.CreationDate,2022-06-22T10:59:22-05:00*%
%TF.ProjectId,Unidad central,556e6964-6164-4206-9365-6e7472616c2e,rev?*%
%TF.SameCoordinates,Original*%
%TF.FileFunction,Legend,Top*%
%TF.FilePolarity,Positive*%
%FSLAX46Y46*%
G04 Gerber Fmt 4.6, Leading zero omitted, Abs format (unit mm)*
G04 Created by KiCad (PCBNEW (5.1.12)-1) date 2022-06-22 10:59:22*
%MOMM*%
%LPD*%
G01*
G04 APERTURE LIST*
%ADD10C,0.120000*%
%ADD11C,0.200000*%
%ADD12C,0.100000*%
%ADD13C,0.150000*%
%ADD14C,0.254000*%
G04 APERTURE END LIST*
D10*
%TO.C,R6*%
X123897000Y-59921100D02*
X124667000Y-59921100D01*
X131977000Y-59921100D02*
X131207000Y-59921100D01*
X124667000Y-61291100D02*
X131207000Y-61291100D01*
X124667000Y-58551100D02*
X124667000Y-61291100D01*
X131207000Y-58551100D02*
X124667000Y-58551100D01*
X131207000Y-61291100D02*
X131207000Y-58551100D01*
%TO.C,R5*%
X171124000Y-95224600D02*
X170354000Y-95224600D01*
X163044000Y-95224600D02*
X163814000Y-95224600D01*
X170354000Y-93854600D02*
X163814000Y-93854600D01*
X170354000Y-96594600D02*
X170354000Y-93854600D01*
X163814000Y-96594600D02*
X170354000Y-96594600D01*
X163814000Y-93854600D02*
X163814000Y-96594600D01*
%TO.C,R4*%
X171302000Y-88742500D02*
X170532000Y-88742500D01*
X163222000Y-88742500D02*
X163992000Y-88742500D01*
X170532000Y-87372500D02*
X163992000Y-87372500D01*
X170532000Y-90112500D02*
X170532000Y-87372500D01*
X163992000Y-90112500D02*
X170532000Y-90112500D01*
X163992000Y-87372500D02*
X163992000Y-90112500D01*
%TO.C,R3*%
X171302000Y-81991200D02*
X170532000Y-81991200D01*
X163222000Y-81991200D02*
X163992000Y-81991200D01*
X170532000Y-80621200D02*
X163992000Y-80621200D01*
X170532000Y-83361200D02*
X170532000Y-80621200D01*
X163992000Y-83361200D02*
X170532000Y-83361200D01*
X163992000Y-80621200D02*
X163992000Y-83361200D01*
%TO.C,R2*%
X171390000Y-76131400D02*
X170620000Y-76131400D01*
X163310000Y-76131400D02*
X164080000Y-76131400D01*
X170620000Y-74761400D02*
X164080000Y-74761400D01*
X170620000Y-77501400D02*
X170620000Y-74761400D01*
X164080000Y-77501400D02*
X170620000Y-77501400D01*
X164080000Y-74761400D02*
X164080000Y-77501400D01*
%TO.C,R1*%
X171329000Y-69883000D02*
X170559000Y-69883000D01*
X163249000Y-69883000D02*
X164019000Y-69883000D01*
X170559000Y-68513000D02*
X164019000Y-68513000D01*
X170559000Y-71253000D02*
X170559000Y-68513000D01*
X164019000Y-71253000D02*
X170559000Y-71253000D01*
X164019000Y-68513000D02*
X164019000Y-71253000D01*
%TO.C,J4*%
X143417000Y-101898000D02*
X144747000Y-101898000D01*
X143417000Y-103228000D02*
X143417000Y-101898000D01*
X143417000Y-104498000D02*
X146077000Y-104498000D01*
X146077000Y-104498000D02*
X146077000Y-107098000D01*
X143417000Y-104498000D02*
X143417000Y-107098000D01*
X143417000Y-107098000D02*
X146077000Y-107098000D01*
%TO.C,J3*%
X135949000Y-101995000D02*
X137279000Y-101995000D01*
X135949000Y-103325000D02*
X135949000Y-101995000D01*
X135949000Y-104595000D02*
X138609000Y-104595000D01*
X138609000Y-104595000D02*
X138609000Y-107195000D01*
X135949000Y-104595000D02*
X135949000Y-107195000D01*
X135949000Y-107195000D02*
X138609000Y-107195000D01*
%TO.C,J2*%
X129074000Y-102094000D02*
X130404000Y-102094000D01*
X129074000Y-103424000D02*
X129074000Y-102094000D01*
X129074000Y-104694000D02*
X131734000Y-104694000D01*
X131734000Y-104694000D02*
X131734000Y-107294000D01*
X129074000Y-104694000D02*
X129074000Y-107294000D01*
X129074000Y-107294000D02*
X131734000Y-107294000D01*
%TO.C,D3*%
X141492000Y-51977000D02*
X142822000Y-51977000D01*
X141492000Y-53307000D02*
X141492000Y-51977000D01*
X141492000Y-54577000D02*
X144152000Y-54577000D01*
X144152000Y-54577000D02*
X144152000Y-62257000D01*
X141492000Y-54577000D02*
X141492000Y-62257000D01*
X141492000Y-62257000D02*
X144152000Y-62257000D01*
D11*
%TO.C,U1*%
X103874000Y-82184200D02*
X99552000Y-82184200D01*
X103874000Y-87990200D02*
X103874000Y-82184200D01*
X99552000Y-87990200D02*
X103874000Y-87990200D01*
X99552000Y-82184200D02*
X99552000Y-87990200D01*
X150452000Y-69985200D02*
X132672000Y-69985200D01*
X150452000Y-87985200D02*
X150452000Y-69985200D01*
X132672000Y-87985200D02*
X150452000Y-87985200D01*
X132672000Y-69985200D02*
X132672000Y-87985200D01*
D12*
X150462000Y-64085200D02*
X150462000Y-64085200D01*
X150362000Y-64085200D02*
X150362000Y-64085200D01*
X99862000Y-93485200D02*
X99862000Y-64485200D01*
X157862000Y-93485200D02*
X99862000Y-93485200D01*
X157862000Y-64485200D02*
X157862000Y-93485200D01*
X99862000Y-64485200D02*
X157862000Y-64485200D01*
X150362000Y-64085200D02*
G75*
G03*
X150462000Y-64085200I50000J0D01*
G01*
X150462000Y-64085200D02*
G75*
G03*
X150362000Y-64085200I-50000J0D01*
G01*
D10*
%TO.C,D2*%
X150196000Y-51977000D02*
X151526000Y-51977000D01*
X150196000Y-53307000D02*
X150196000Y-51977000D01*
X150196000Y-54577000D02*
X152856000Y-54577000D01*
X152856000Y-54577000D02*
X152856000Y-62257000D01*
X150196000Y-54577000D02*
X150196000Y-62257000D01*
X150196000Y-62257000D02*
X152856000Y-62257000D01*
%TO.C,D1*%
X158634000Y-51977000D02*
X159964000Y-51977000D01*
X158634000Y-53307000D02*
X158634000Y-51977000D01*
X158634000Y-54577000D02*
X161294000Y-54577000D01*
X161294000Y-54577000D02*
X161294000Y-62257000D01*
X158634000Y-54577000D02*
X158634000Y-62257000D01*
X158634000Y-62257000D02*
X161294000Y-62257000D01*
%TO.C,J6*%
X109503000Y-53828600D02*
X110833000Y-53828600D01*
X109503000Y-55158600D02*
X109503000Y-53828600D01*
X109503000Y-56428600D02*
X112163000Y-56428600D01*
X112163000Y-56428600D02*
X112163000Y-59028600D01*
X109503000Y-56428600D02*
X109503000Y-59028600D01*
X109503000Y-59028600D02*
X112163000Y-59028600D01*
%TO.C,J5*%
X151200000Y-101797000D02*
X152530000Y-101797000D01*
X151200000Y-103127000D02*
X151200000Y-101797000D01*
X151200000Y-104397000D02*
X153860000Y-104397000D01*
X153860000Y-104397000D02*
X153860000Y-106997000D01*
X151200000Y-104397000D02*
X151200000Y-106997000D01*
X151200000Y-106997000D02*
X153860000Y-106997000D01*
%TO.C,J1*%
X121314000Y-101995000D02*
X122644000Y-101995000D01*
X121314000Y-103325000D02*
X121314000Y-101995000D01*
X121314000Y-104595000D02*
X123974000Y-104595000D01*
X123974000Y-104595000D02*
X123974000Y-107195000D01*
X121314000Y-104595000D02*
X121314000Y-107195000D01*
X121314000Y-107195000D02*
X123974000Y-107195000D01*
%TO.C,R6*%
D13*
X127770333Y-62743480D02*
X127437000Y-62267290D01*
X127198904Y-62743480D02*
X127198904Y-61743480D01*
X127579857Y-61743480D01*
X127675095Y-61791100D01*
X127722714Y-61838719D01*
X127770333Y-61933957D01*
X127770333Y-62076814D01*
X127722714Y-62172052D01*
X127675095Y-62219671D01*
X127579857Y-62267290D01*
X127198904Y-62267290D01*
X128627476Y-61743480D02*
X128437000Y-61743480D01*
X128341761Y-61791100D01*
X128294142Y-61838719D01*
X128198904Y-61981576D01*
X128151285Y-62172052D01*
X128151285Y-62553004D01*
X128198904Y-62648242D01*
X128246523Y-62695861D01*
X128341761Y-62743480D01*
X128532238Y-62743480D01*
X128627476Y-62695861D01*
X128675095Y-62648242D01*
X128722714Y-62553004D01*
X128722714Y-62314909D01*
X128675095Y-62219671D01*
X128627476Y-62172052D01*
X128532238Y-62124433D01*
X128341761Y-62124433D01*
X128246523Y-62172052D01*
X128198904Y-62219671D01*
X128151285Y-62314909D01*
%TO.C,R5*%
X166917333Y-93306980D02*
X166584000Y-92830790D01*
X166345904Y-93306980D02*
X166345904Y-92306980D01*
X166726857Y-92306980D01*
X166822095Y-92354600D01*
X166869714Y-92402219D01*
X166917333Y-92497457D01*
X166917333Y-92640314D01*
X166869714Y-92735552D01*
X166822095Y-92783171D01*
X166726857Y-92830790D01*
X166345904Y-92830790D01*
X167822095Y-92306980D02*
X167345904Y-92306980D01*
X167298285Y-92783171D01*
X167345904Y-92735552D01*
X167441142Y-92687933D01*
X167679238Y-92687933D01*
X167774476Y-92735552D01*
X167822095Y-92783171D01*
X167869714Y-92878409D01*
X167869714Y-93116504D01*
X167822095Y-93211742D01*
X167774476Y-93259361D01*
X167679238Y-93306980D01*
X167441142Y-93306980D01*
X167345904Y-93259361D01*
X167298285Y-93211742D01*
%TO.C,R4*%
X167095333Y-86824880D02*
X166762000Y-86348690D01*
X166523904Y-86824880D02*
X166523904Y-85824880D01*
X166904857Y-85824880D01*
X167000095Y-85872500D01*
X167047714Y-85920119D01*
X167095333Y-86015357D01*
X167095333Y-86158214D01*
X167047714Y-86253452D01*
X167000095Y-86301071D01*
X166904857Y-86348690D01*
X166523904Y-86348690D01*
X167952476Y-86158214D02*
X167952476Y-86824880D01*
X167714380Y-85777261D02*
X167476285Y-86491547D01*
X168095333Y-86491547D01*
%TO.C,R3*%
X167095333Y-80073580D02*
X166762000Y-79597390D01*
X166523904Y-80073580D02*
X166523904Y-79073580D01*
X166904857Y-79073580D01*
X167000095Y-79121200D01*
X167047714Y-79168819D01*
X167095333Y-79264057D01*
X167095333Y-79406914D01*
X167047714Y-79502152D01*
X167000095Y-79549771D01*
X166904857Y-79597390D01*
X166523904Y-79597390D01*
X167428666Y-79073580D02*
X168047714Y-79073580D01*
X167714380Y-79454533D01*
X167857238Y-79454533D01*
X167952476Y-79502152D01*
X168000095Y-79549771D01*
X168047714Y-79645009D01*
X168047714Y-79883104D01*
X168000095Y-79978342D01*
X167952476Y-80025961D01*
X167857238Y-80073580D01*
X167571523Y-80073580D01*
X167476285Y-80025961D01*
X167428666Y-79978342D01*
%TO.C,R2*%
X167183333Y-74213780D02*
X166850000Y-73737590D01*
X166611904Y-74213780D02*
X166611904Y-73213780D01*
X166992857Y-73213780D01*
X167088095Y-73261400D01*
X167135714Y-73309019D01*
X167183333Y-73404257D01*
X167183333Y-73547114D01*
X167135714Y-73642352D01*
X167088095Y-73689971D01*
X166992857Y-73737590D01*
X166611904Y-73737590D01*
X167564285Y-73309019D02*
X167611904Y-73261400D01*
X167707142Y-73213780D01*
X167945238Y-73213780D01*
X168040476Y-73261400D01*
X168088095Y-73309019D01*
X168135714Y-73404257D01*
X168135714Y-73499495D01*
X168088095Y-73642352D01*
X167516666Y-74213780D01*
X168135714Y-74213780D01*
%TO.C,R1*%
X167122333Y-67965380D02*
X166789000Y-67489190D01*
X166550904Y-67965380D02*
X166550904Y-66965380D01*
X166931857Y-66965380D01*
X167027095Y-67013000D01*
X167074714Y-67060619D01*
X167122333Y-67155857D01*
X167122333Y-67298714D01*
X167074714Y-67393952D01*
X167027095Y-67441571D01*
X166931857Y-67489190D01*
X166550904Y-67489190D01*
X168074714Y-67965380D02*
X167503285Y-67965380D01*
X167789000Y-67965380D02*
X167789000Y-66965380D01*
X167693761Y-67108238D01*
X167598523Y-67203476D01*
X167503285Y-67251095D01*
%TO.C,J4*%
X144413666Y-100350380D02*
X144413666Y-101064666D01*
X144366047Y-101207523D01*
X144270809Y-101302761D01*
X144127952Y-101350380D01*
X144032714Y-101350380D01*
X145318428Y-100683714D02*
X145318428Y-101350380D01*
X145080333Y-100302761D02*
X144842238Y-101017047D01*
X145461285Y-101017047D01*
%TO.C,J3*%
X136945666Y-100447380D02*
X136945666Y-101161666D01*
X136898047Y-101304523D01*
X136802809Y-101399761D01*
X136659952Y-101447380D01*
X136564714Y-101447380D01*
X137326619Y-100447380D02*
X137945666Y-100447380D01*
X137612333Y-100828333D01*
X137755190Y-100828333D01*
X137850428Y-100875952D01*
X137898047Y-100923571D01*
X137945666Y-101018809D01*
X137945666Y-101256904D01*
X137898047Y-101352142D01*
X137850428Y-101399761D01*
X137755190Y-101447380D01*
X137469476Y-101447380D01*
X137374238Y-101399761D01*
X137326619Y-101352142D01*
%TO.C,J2*%
X130070666Y-100546380D02*
X130070666Y-101260666D01*
X130023047Y-101403523D01*
X129927809Y-101498761D01*
X129784952Y-101546380D01*
X129689714Y-101546380D01*
X130499238Y-100641619D02*
X130546857Y-100594000D01*
X130642095Y-100546380D01*
X130880190Y-100546380D01*
X130975428Y-100594000D01*
X131023047Y-100641619D01*
X131070666Y-100736857D01*
X131070666Y-100832095D01*
X131023047Y-100974952D01*
X130451619Y-101546380D01*
X131070666Y-101546380D01*
%TO.C,D3*%
X142083904Y-51429380D02*
X142083904Y-50429380D01*
X142322000Y-50429380D01*
X142464857Y-50477000D01*
X142560095Y-50572238D01*
X142607714Y-50667476D01*
X142655333Y-50857952D01*
X142655333Y-51000809D01*
X142607714Y-51191285D01*
X142560095Y-51286523D01*
X142464857Y-51381761D01*
X142322000Y-51429380D01*
X142083904Y-51429380D01*
X142988666Y-50429380D02*
X143607714Y-50429380D01*
X143274380Y-50810333D01*
X143417238Y-50810333D01*
X143512476Y-50857952D01*
X143560095Y-50905571D01*
X143607714Y-51000809D01*
X143607714Y-51238904D01*
X143560095Y-51334142D01*
X143512476Y-51381761D01*
X143417238Y-51429380D01*
X143131523Y-51429380D01*
X143036285Y-51381761D01*
X142988666Y-51334142D01*
%TO.C,U1*%
D14*
X123962560Y-75697543D02*
X123962560Y-76725639D01*
X124023037Y-76846591D01*
X124083513Y-76907067D01*
X124204465Y-76967543D01*
X124446370Y-76967543D01*
X124567322Y-76907067D01*
X124627799Y-76846591D01*
X124688275Y-76725639D01*
X124688275Y-75697543D01*
X125958275Y-76967543D02*
X125232560Y-76967543D01*
X125595418Y-76967543D02*
X125595418Y-75697543D01*
X125474465Y-75878972D01*
X125353513Y-75999924D01*
X125232560Y-76060400D01*
%TO.C,D2*%
D13*
X150787904Y-51429380D02*
X150787904Y-50429380D01*
X151026000Y-50429380D01*
X151168857Y-50477000D01*
X151264095Y-50572238D01*
X151311714Y-50667476D01*
X151359333Y-50857952D01*
X151359333Y-51000809D01*
X151311714Y-51191285D01*
X151264095Y-51286523D01*
X151168857Y-51381761D01*
X151026000Y-51429380D01*
X150787904Y-51429380D01*
X151740285Y-50524619D02*
X151787904Y-50477000D01*
X151883142Y-50429380D01*
X152121238Y-50429380D01*
X152216476Y-50477000D01*
X152264095Y-50524619D01*
X152311714Y-50619857D01*
X152311714Y-50715095D01*
X152264095Y-50857952D01*
X151692666Y-51429380D01*
X152311714Y-51429380D01*
%TO.C,D1*%
X159225904Y-51429380D02*
X159225904Y-50429380D01*
X159464000Y-50429380D01*
X159606857Y-50477000D01*
X159702095Y-50572238D01*
X159749714Y-50667476D01*
X159797333Y-50857952D01*
X159797333Y-51000809D01*
X159749714Y-51191285D01*
X159702095Y-51286523D01*
X159606857Y-51381761D01*
X159464000Y-51429380D01*
X159225904Y-51429380D01*
X160749714Y-51429380D02*
X160178285Y-51429380D01*
X160464000Y-51429380D02*
X160464000Y-50429380D01*
X160368761Y-50572238D01*
X160273523Y-50667476D01*
X160178285Y-50715095D01*
%TO.C,J6*%
X110499666Y-52280980D02*
X110499666Y-52995266D01*
X110452047Y-53138123D01*
X110356809Y-53233361D01*
X110213952Y-53280980D01*
X110118714Y-53280980D01*
X111404428Y-52280980D02*
X111213952Y-52280980D01*
X111118714Y-52328600D01*
X111071095Y-52376219D01*
X110975857Y-52519076D01*
X110928238Y-52709552D01*
X110928238Y-53090504D01*
X110975857Y-53185742D01*
X111023476Y-53233361D01*
X111118714Y-53280980D01*
X111309190Y-53280980D01*
X111404428Y-53233361D01*
X111452047Y-53185742D01*
X111499666Y-53090504D01*
X111499666Y-52852409D01*
X111452047Y-52757171D01*
X111404428Y-52709552D01*
X111309190Y-52661933D01*
X111118714Y-52661933D01*
X111023476Y-52709552D01*
X110975857Y-52757171D01*
X110928238Y-52852409D01*
%TO.C,J5*%
X152196666Y-100249380D02*
X152196666Y-100963666D01*
X152149047Y-101106523D01*
X152053809Y-101201761D01*
X151910952Y-101249380D01*
X151815714Y-101249380D01*
X153149047Y-100249380D02*
X152672857Y-100249380D01*
X152625238Y-100725571D01*
X152672857Y-100677952D01*
X152768095Y-100630333D01*
X153006190Y-100630333D01*
X153101428Y-100677952D01*
X153149047Y-100725571D01*
X153196666Y-100820809D01*
X153196666Y-101058904D01*
X153149047Y-101154142D01*
X153101428Y-101201761D01*
X153006190Y-101249380D01*
X152768095Y-101249380D01*
X152672857Y-101201761D01*
X152625238Y-101154142D01*
%TO.C,J1*%
X122310666Y-100447380D02*
X122310666Y-101161666D01*
X122263047Y-101304523D01*
X122167809Y-101399761D01*
X122024952Y-101447380D01*
X121929714Y-101447380D01*
X123310666Y-101447380D02*
X122739238Y-101447380D01*
X123024952Y-101447380D02*
X123024952Y-100447380D01*
X122929714Y-100590238D01*
X122834476Y-100685476D01*
X122739238Y-100733095D01*
%TD*%
M02*
