%TF.GenerationSoftware,KiCad,Pcbnew,(5.1.12)-1*%
%TF.CreationDate,2022-06-22T10:59:22-05:00*%
%TF.ProjectId,Unidad central,556e6964-6164-4206-9365-6e7472616c2e,rev?*%
%TF.SameCoordinates,Original*%
%TF.FileFunction,Other,User*%
%FSLAX46Y46*%
G04 Gerber Fmt 4.6, Leading zero omitted, Abs format (unit mm)*
G04 Created by KiCad (PCBNEW (5.1.12)-1) date 2022-06-22 10:59:22*
%MOMM*%
%LPD*%
G01*
G04 APERTURE LIST*
%ADD10C,0.050000*%
%ADD11C,0.100000*%
G04 APERTURE END LIST*
D10*
%TO.C,R6*%
X121807000Y-61421100D02*
X134067000Y-61421100D01*
X121807000Y-58421100D02*
X121807000Y-61421100D01*
X134067000Y-58421100D02*
X121807000Y-58421100D01*
X134067000Y-61421100D02*
X134067000Y-58421100D01*
%TO.C,R5*%
X173214000Y-93724600D02*
X160954000Y-93724600D01*
X173214000Y-96724600D02*
X173214000Y-93724600D01*
X160954000Y-96724600D02*
X173214000Y-96724600D01*
X160954000Y-93724600D02*
X160954000Y-96724600D01*
%TO.C,R4*%
X173392000Y-87242500D02*
X161132000Y-87242500D01*
X173392000Y-90242500D02*
X173392000Y-87242500D01*
X161132000Y-90242500D02*
X173392000Y-90242500D01*
X161132000Y-87242500D02*
X161132000Y-90242500D01*
%TO.C,R3*%
X173392000Y-80491200D02*
X161132000Y-80491200D01*
X173392000Y-83491200D02*
X173392000Y-80491200D01*
X161132000Y-83491200D02*
X173392000Y-83491200D01*
X161132000Y-80491200D02*
X161132000Y-83491200D01*
%TO.C,R2*%
X173480000Y-74631400D02*
X161220000Y-74631400D01*
X173480000Y-77631400D02*
X173480000Y-74631400D01*
X161220000Y-77631400D02*
X173480000Y-77631400D01*
X161220000Y-74631400D02*
X161220000Y-77631400D01*
%TO.C,R1*%
X173419000Y-68383000D02*
X161159000Y-68383000D01*
X173419000Y-71383000D02*
X173419000Y-68383000D01*
X161159000Y-71383000D02*
X173419000Y-71383000D01*
X161159000Y-68383000D02*
X161159000Y-71383000D01*
%TO.C,J4*%
X146547000Y-101428000D02*
X142947000Y-101428000D01*
X146547000Y-107578000D02*
X146547000Y-101428000D01*
X142947000Y-107578000D02*
X146547000Y-107578000D01*
X142947000Y-101428000D02*
X142947000Y-107578000D01*
%TO.C,J3*%
X139079000Y-101525000D02*
X135479000Y-101525000D01*
X139079000Y-107675000D02*
X139079000Y-101525000D01*
X135479000Y-107675000D02*
X139079000Y-107675000D01*
X135479000Y-101525000D02*
X135479000Y-107675000D01*
%TO.C,J2*%
X132204000Y-101624000D02*
X128604000Y-101624000D01*
X132204000Y-107774000D02*
X132204000Y-101624000D01*
X128604000Y-107774000D02*
X132204000Y-107774000D01*
X128604000Y-101624000D02*
X128604000Y-107774000D01*
%TO.C,D3*%
X144622000Y-51507000D02*
X141022000Y-51507000D01*
X144622000Y-62707000D02*
X144622000Y-51507000D01*
X141022000Y-62707000D02*
X144622000Y-62707000D01*
X141022000Y-51507000D02*
X141022000Y-62707000D01*
D11*
%TO.C,U1*%
X98862000Y-94485200D02*
X98862000Y-63485200D01*
X158862000Y-94485200D02*
X98862000Y-94485200D01*
X158862000Y-63485200D02*
X158862000Y-94485200D01*
X98862000Y-63485200D02*
X158862000Y-63485200D01*
D10*
%TO.C,D2*%
X153326000Y-51507000D02*
X149726000Y-51507000D01*
X153326000Y-62707000D02*
X153326000Y-51507000D01*
X149726000Y-62707000D02*
X153326000Y-62707000D01*
X149726000Y-51507000D02*
X149726000Y-62707000D01*
%TO.C,D1*%
X161764000Y-51507000D02*
X158164000Y-51507000D01*
X161764000Y-62707000D02*
X161764000Y-51507000D01*
X158164000Y-62707000D02*
X161764000Y-62707000D01*
X158164000Y-51507000D02*
X158164000Y-62707000D01*
%TO.C,J6*%
X112633000Y-53358600D02*
X109033000Y-53358600D01*
X112633000Y-59508600D02*
X112633000Y-53358600D01*
X109033000Y-59508600D02*
X112633000Y-59508600D01*
X109033000Y-53358600D02*
X109033000Y-59508600D01*
%TO.C,J5*%
X154330000Y-101327000D02*
X150730000Y-101327000D01*
X154330000Y-107477000D02*
X154330000Y-101327000D01*
X150730000Y-107477000D02*
X154330000Y-107477000D01*
X150730000Y-101327000D02*
X150730000Y-107477000D01*
%TO.C,J1*%
X124444000Y-101525000D02*
X120844000Y-101525000D01*
X124444000Y-107675000D02*
X124444000Y-101525000D01*
X120844000Y-107675000D02*
X124444000Y-107675000D01*
X120844000Y-101525000D02*
X120844000Y-107675000D01*
%TD*%
M02*
